<svg height="512pt" viewBox="-33 0 512 512.00104" width="512pt" xmlns="http://www.w3.org/2000/svg"><path d="m59.976562 401.371094h-20.378906c-1.726562 0-3.136718-1.410156-3.136718-3.132813v-99.617187c0-1.726563 1.410156-3.136719 3.136718-3.136719h20.378906v-28.234375h-30.667968c-11.808594 0-21.472656 9.527344-21.472656 21.175781v120.007813c0 11.644531 9.664062 21.175781 21.472656 21.175781h30.667968zm0 0" fill="#fff"/><path d="m240.359375 295.371094c-9.242187 0-16.804687-8.753906-16.804687-19.449219v-20.75h-1.136719v9.078125c0 10.699219-7.5625 19.453125-16.804688 19.453125-9.246093 0-16.808593-8.753906-16.808593-19.453125v-9.078125h-128.828126v215.871094c0-5.746094 4.703126-10.449219 10.449219-10.449219h176.289063c5.75 0 10.449218 4.703125 10.449218 10.449219v-195.121094c0 10.695313-7.558593 19.449219-16.804687 19.449219zm0 0" fill="#ffc843"/><path d="m59.976562 493.714844c0 5.746094 4.703126 10.449218 10.449219 10.449218h176.289063c5.75 0 10.449218-4.703124 10.449218-10.449218v-22.671875c0-5.746094-4.699218-10.449219-10.449218-10.449219h-176.289063c-5.746093 0-10.449219 4.703125-10.449219 10.449219zm0 0" fill="#ffb400"/><path d="m92.683594 493.714844v-22.671875c0-5.746094 4.703125-10.449219 10.449218-10.449219h-32.707031c-5.746093 0-10.449219 4.703125-10.449219 10.449219v22.671875c0 5.746094 4.703126 10.449218 10.449219 10.449218h32.707031c-5.746093 0-10.449218-4.703124-10.449218-10.449218zm0 0" fill="#ffa816"/><path d="m79.695312 193.46875h3.199219c6.429688-9.386719 17.316407-15.5625 29.664063-15.5625 6.230468 0 12.082031 1.574219 17.179687 4.332031 6.675781-6.671875 15.949219-10.816406 26.203125-10.816406 15.195313 0 28.234375 9.085937 33.855469 22.046875h47.648437c10.847657 0 19.71875 7.925781 19.71875 17.613281v28.527344 15.5625 20.75c0 10.695313-7.5625 19.449219-16.804687 19.449219-9.246094 0-16.804687-8.753906-16.804687-19.449219v-20.75h-1.140626v9.078125c0 10.695312-7.5625 19.449219-16.804687 19.449219s-16.804687-8.753907-16.804687-19.449219v-9.078125h-128.828126s0-42.527344 0-44.085937c0-9.6875 8.875-17.617188 19.71875-17.617188zm0 0" fill="#fff"/><path d="m92.683594 183.875c-3.855469 2.546875-7.191406 5.800781-9.789063 9.59375h-3.195312c-10.847657 0-19.71875 7.929688-19.71875 17.617188v44.085937h32.703125c0-18.5 0-54.222656 0-71.296875zm0 0" fill="#e1eaf8"/><path d="m106.988281 427.792969c0 5.746093-3.976562 10.449219-8.835937 10.449219-4.855469 0-8.832032-4.703126-8.832032-10.449219v-111.1875c0-5.75 3.976563-10.449219 8.832032-10.449219 4.859375 0 8.835937 4.699219 8.835937 10.449219zm0 0" fill="#ffb400"/><path d="m147.363281 427.792969c0 5.746093-3.972656 10.449219-8.832031 10.449219-4.855469 0-8.832031-4.703126-8.832031-10.449219v-111.1875c0-5.75 3.976562-10.449219 8.832031-10.449219 4.859375 0 8.832031 4.699219 8.832031 10.449219zm0 0" fill="#ffb400"/><path d="m187.742188 427.792969c0 5.746093-3.972657 10.449219-8.832032 10.449219-4.855468 0-8.832031-4.703126-8.832031-10.449219v-111.1875c0-5.75 3.976563-10.449219 8.832031-10.449219 4.859375 0 8.832032 4.699219 8.832032 10.449219zm0 0" fill="#ffb400"/><path d="m228.121094 427.792969c0 5.746093-3.976563 10.449219-8.835938 10.449219-4.855468 0-8.832031-4.703126-8.832031-10.449219v-111.1875c0-5.75 3.976563-10.449219 8.832031-10.449219 4.859375 0 8.835938 4.699219 8.835938 10.449219zm0 0" fill="#ffb400"/><path d="m401.679688 183.5-9.984376-138.164062h-61l-9.984374 138.160156c-21.207032 5.09375-37.074219 24.03125-37.074219 46.460937v258.265625c0 8.769532 7.273437 15.941406 16.160156 15.941406h122.796875c8.886719 0 16.160156-7.171874 16.160156-15.941406v-258.265625c0-22.429687-15.867187-41.367187-37.074218-46.457031zm0 0" fill="#76ffd9"/><path d="m399.699219 315.542969c5.101562 11.125 8.09375 24.566406 8.09375 39.050781 0 17.382812-4.308594 33.257812-11.410157 45.425781h42.371094v-84.476562zm0 0" fill="#ffb400"/><path d="m305.371094 460.59375v38.601562c0 1.734376.292968 3.402344.820312 4.96875h116.402344c8.886719 0 16.160156-7.171874 16.160156-15.941406v-27.628906zm0 0" fill="#ffc843"/><path d="m283.636719 400.019531h21.734375v60.574219h-21.734375zm0 0" fill="#5de0bf"/><path d="m305.371094 240.929688c0-22.429688 15.867187-41.367188 37.074218-46.460938l10.769532-149.015625-22.519532-.117187-9.984374 138.164062c-21.207032 5.089844-37.074219 24.03125-37.074219 46.457031v85.589844h21.734375zm0 0" fill="#5de0bf"/><path d="m305.371094 460.59375h-21.734375v27.628906c0 8.769532 7.273437 15.941406 16.160156 15.941406h6.394531c-.527344-1.566406-.820312-3.234374-.820312-4.96875zm0 0" fill="#ffb400"/><path d="m326.007812 400.019531c-7.101562-12.167969-11.410156-28.042969-11.410156-45.425781 0-14.484375 2.988282-27.925781 8.09375-39.050781h-17.320312v84.476562zm0 0" fill="#ffb400"/><path d="m283.636719 315.542969h21.734375v84.476562h-21.734375zm0 0" fill="#ffa816"/><path d="m407.792969 354.59375c0-38.289062-20.863281-69.332031-46.597657-69.332031-25.734374 0-46.597656 31.042969-46.597656 69.332031 0 38.292969 20.863282 69.332031 46.597656 69.332031 25.734376 0 46.597657-31.039062 46.597657-69.332031zm0 0" fill="#ffc843"/><path d="m361.195312 403.027344c-12.132812 0-25.699218-20.710938-25.699218-48.433594 0-27.71875 13.566406-48.433594 25.699218-48.433594 12.132813 0 25.699219 20.714844 25.699219 48.433594 0 27.722656-13.566406 48.433594-25.699219 48.433594zm0 0" fill="#fff"/><path d="m315.308594 34.886719c0 5.75 4.699218 10.449219 10.445312 10.449219h70.882813c5.746093 0 10.449219-4.699219 10.449219-10.449219v-16.601563c0-5.746094-4.703126-10.449218-10.449219-10.449218h-70.882813c-5.746094 0-10.445312 4.703124-10.445312 10.449218zm0 0" fill="#ffc843"/><path d="m347.8125 34.886719v-16.601563c0-5.746094 4.699219-10.449218 10.449219-10.449218h-32.507813c-5.746094 0-10.445312 4.703124-10.445312 10.449218v16.601563c0 5.75 4.699218 10.449219 10.445312 10.449219h32.507813c-5.75 0-10.449219-4.699219-10.449219-10.449219zm0 0" fill="#ffb400"/><path d="m237.445312 185.632812h-42.847656c-7.910156-13.542968-22.566406-22.046874-38.65625-22.046874-10.128906 0-19.730468 3.3125-27.566406 9.417968-5.019531-1.929687-10.398438-2.933594-15.816406-2.933594-13.046875 0-25.296875 5.75-33.546875 15.570313-14.878907.335937-26.871094 11.621094-26.871094 25.445313v48.324218h-22.832031c-16.160156 0-29.308594 13.015625-29.308594 29.015625v120.003907c0 16 13.144531 29.015624 29.308594 29.015624h22.832031v56.269532c0 10.082031 8.203125 18.285156 18.285156 18.285156h176.289063c10.082031 0 18.289062-8.203125 18.289062-18.285156v-282.628906c0-14.035157-12.363281-25.453126-27.558594-25.453126zm-185.304687 102.015626h-12.542969c-6.050781 0-10.972656 4.921874-10.972656 10.972656v52.464844c0 4.328124 3.507812 7.835937 7.835938 7.835937 4.328124 0 7.839843-3.507813 7.839843-7.835937v-47.765626h7.839844v90.214844h-7.839844v-15.28125c0-4.328125-3.511719-7.835937-7.839843-7.835937-4.328126 0-7.835938 3.507812-7.835938 7.835937v19.984375c0 6.046875 4.921875 10.96875 10.972656 10.96875h12.542969v12.5625h-22.832031c-7.519532 0-13.632813-5.984375-13.632813-13.339843v-120.003907c0-7.355469 6.113281-13.339843 13.632813-13.339843h22.832031zm197.1875 206.066406c0 1.414062-1.195313 2.613281-2.613281 2.613281h-176.289063c-1.414062 0-2.613281-1.199219-2.613281-2.613281v-282.628906c0-5.300782 5.445312-9.777344 11.882812-9.777344h3.199219c2.585938 0 5.007813-1.277344 6.46875-3.410156 5.207031-7.609376 13.878907-12.152344 23.195313-12.152344 4.703125 0 9.355468 1.171875 13.453125 3.386718 3.046875 1.648438 6.816406 1.101563 9.269531-1.351562 5.496094-5.492188 12.832031-8.519531 20.660156-8.519531 11.636719 0 22.101563 6.800781 26.667969 17.324219 1.238281 2.867187 4.066406 4.722656 7.1875 4.722656h47.648437c6.441407 0 11.882813 4.476562 11.882813 9.777344zm0 0" fill="#434c54"/><path d="m409.105469 177.523438-3.507813-48.523438c-.308594-4.316406-4.070312-7.574219-8.378906-7.25-4.316406.3125-7.566406 4.066406-7.253906 8.382812l3.898437 53.929688c.246094 3.40625 2.667969 6.257812 5.988281 7.054688 18.289063 4.394531 31.066407 20.363281 31.066407 38.839843v222.800781h-23.722657c-4.324218 0-7.835937 3.507813-7.835937 7.835938s3.511719 7.835938 7.835937 7.835938h23.722657v19.792968c0 4.46875-3.734375 8.101563-8.324219 8.101563h-122.796875c-4.589844 0-8.324219-3.632813-8.324219-8.101563v-19.792968h84.378906c4.328126 0 7.835938-3.507813 7.835938-7.835938s-3.507812-7.835938-7.835938-7.835938h-84.378906v-222.800781c0-18.476562 12.777344-34.445312 31.066406-38.835937 3.320313-.800782 5.742188-3.652344 5.988282-7.058594l9.460937-130.890625h46.414063l3.375 46.65625c.3125 4.320313 4.074218 7.574219 8.378906 7.253906 4.316406-.3125 7.566406-4.066406 7.253906-8.382812l-3.316406-45.867188c8.433594-1.621093 14.828125-9.046875 14.828125-17.945312v-16.601563c0-10.082031-8.203125-18.285156-18.285156-18.285156h-70.882813c-10.082031 0-18.285156 8.203125-18.285156 18.285156v16.601563c0 8.902343 6.394531 16.328125 14.828125 17.949219l-9.011719 124.6875c-22.335937 7.816406-37.484375 28.625-37.484375 52.433593v258.269531c0 13.109376 10.765625 23.773438 23.996094 23.773438h122.796875c13.230469 0 23.996094-10.664062 23.996094-23.773438v-258.269531c0-23.808593-15.148438-44.617187-37.484375-52.433593zm-85.960938-159.238282c0-1.414062 1.195313-2.613281 2.609375-2.613281h70.882813c1.414062 0 2.609375 1.199219 2.609375 2.613281v16.601563c0 1.417969-1.195313 2.613281-2.609375 2.613281h-70.882813c-1.414062 0-2.609375-1.195312-2.609375-2.613281zm0 0" fill="#434c54"/><g fill="#c1c8d2"><path d="m128.730469 218.382812c0-2.058593-.835938-4.085937-2.296875-5.535156-1.453125-1.464844-3.480469-2.300781-5.539063-2.300781-2.058593 0-4.085937.835937-5.539062 2.300781-1.460938 1.449219-2.296875 3.464844-2.296875 5.535156 0 2.058594.835937 4.085938 2.296875 5.539063 1.453125 1.460937 3.480469 2.296875 5.539062 2.296875 2.058594 0 4.085938-.835938 5.539063-2.296875 1.460937-1.464844 2.296875-3.480469 2.296875-5.539063zm0 0"/><path d="m188.8125 212.636719c-2.058594 0-4.085938.835937-5.535156 2.296875-1.464844 1.453125-2.300782 3.46875-2.300782 5.539062 0 2.058594.835938 4.085938 2.300782 5.539063 1.460937 1.460937 3.476562 2.296875 5.535156 2.296875s4.085938-.835938 5.539062-2.296875c1.460938-1.453125 2.296876-3.480469 2.296876-5.539063 0-2.066406-.835938-4.085937-2.296876-5.539062-1.453124-1.460938-3.480468-2.296875-5.539062-2.296875zm0 0"/><path d="m227.476562 210.546875c-2.058593 0-4.085937.835937-5.539062 2.300781-1.464844 1.449219-2.300781 3.464844-2.300781 5.535156 0 2.058594.835937 4.085938 2.300781 5.539063 1.453125 1.460937 3.480469 2.296875 5.539062 2.296875 2.058594 0 4.082032-.835938 5.535157-2.296875 1.464843-1.464844 2.300781-3.480469 2.300781-5.539063 0-2.058593-.835938-4.085937-2.300781-5.535156-1.453125-1.464844-3.476563-2.300781-5.535157-2.300781zm0 0"/><path d="m83.277344 207.414062c-2.058594 0-4.085938.835938-5.535156 2.296876-1.464844 1.453124-2.300782 3.46875-2.300782 5.539062 0 2.058594.835938 4.085938 2.300782 5.535156 1.460937 1.464844 3.476562 2.300782 5.535156 2.300782s4.085937-.835938 5.539062-2.300782c1.464844-1.449218 2.300782-3.476562 2.300782-5.535156 0-2.070312-.835938-4.085938-2.300782-5.539062-1.453125-1.460938-3.46875-2.296876-5.539062-2.296876zm0 0"/><path d="m154.332031 190.695312c-2.058593 0-4.085937.835938-5.539062 2.296876-1.460938 1.453124-2.296875 3.46875-2.296875 5.539062 0 2.066406.835937 4.085938 2.296875 5.539062 1.464843 1.460938 3.480469 2.296876 5.539062 2.296876 2.058594 0 4.085938-.835938 5.539063-2.296876 1.460937-1.453124 2.296875-3.472656 2.296875-5.539062 0-2.058594-.835938-4.085938-2.296875-5.539062-1.453125-1.460938-3.46875-2.296876-5.539063-2.296876zm0 0"/></g></svg>