<svg height="511pt" viewBox="0 0 511 511.99793" width="511pt" xmlns="http://www.w3.org/2000/svg"><path d="m491.234375 21.285156c44.9375 44.9375-23.742187 186.472656-153.390625 316.121094s-271.179688 198.328125-316.121094 153.386719c-24.484375-24.484375-15.226562-77.671875 19.265625-141.976563 8.339844-15.578125 18.183594-31.804687 29.367188-48.433594l.011719-.007812c9.3125-13.867188 19.574218-28 30.71875-42.265625 11.988281-15.371094 24.996093-30.910156 38.929687-46.410156 11.121094-12.386719 22.84375-24.753907 35.105469-37.015625 1.191406-1.1875 2.378906-2.378906 3.582031-3.5625 15.945313-15.773438 32.042969-30.625 48.121094-44.453125 16.171875-13.925781 32.308593-26.8125 48.207031-38.554688 21.597656-15.945312 42.726562-29.804687 62.90625-41.308593 69.351562-39.558594 127.382812-51.433594 153.296875-25.519532zm0 0" fill="#fff"/><path d="m373.875 81.8125c-3.070312 14.441406-17.277344 23.664062-31.730469 20.582031l-67.113281-14.28125c21.597656-15.945312 42.730469-29.804687 62.90625-41.3125l15.34375 3.269531c14.453125 3.078126 23.675781 17.285157 20.59375 31.742188zm0 0" fill="#ffc843"/><path d="m288.53125 167.152344c-3.070312 14.445312-17.277344 23.664062-31.730469 20.585937l-78.097656-16.617187c15.945313-15.777344 32.042969-30.625 48.121094-44.457032l41.113281 8.746094c14.453125 3.082032 23.675781 17.289063 20.59375 31.742188zm0 0" fill="#ffc843"/><path d="m203.1875 252.496094c-3.070312 14.445312-17.277344 23.664062-31.730469 20.585937l-70.367187-14.972656c11.984375-15.371094 24.996094-30.910156 38.929687-46.414063l42.574219 9.0625c14.453125 3.078126 23.675781 17.285157 20.59375 31.738282zm0 0" fill="#ffc843"/><path d="m117.847656 337.839844c-3.070312 14.445312-17.28125 23.664062-31.734375 20.585937l-45.125-9.609375c8.339844-15.578125 18.183594-31.808594 29.367188-48.433594l.011719-.007812 26.882812 5.722656c14.457031 3.082032 23.675781 17.289063 20.597656 31.742188zm0 0" fill="#ffc843"/><path d="m491.230469 21.285156c44.941406 44.941406-23.734375 186.46875-153.386719 316.117188-129.648438 129.648437-271.179688 198.328125-316.117188 153.390625-6.949218-6.949219-11.183593-16.210938-12.882812-27.386719 61.046875 9.351562 179.136719-56.679688 288.730469-166.273438 109.597656-109.597656 175.621093-227.679687 166.273437-288.730468 11.171875 1.699218 20.433594 5.933594 27.382813 12.882812zm0 0" fill="#ffc843"/><path d="m491.230469 21.285156c44.941406 44.941406-23.734375 186.46875-153.386719 316.117188-129.648438 129.648437-271.179688 198.328125-316.117188 153.390625-2.3125-2.3125-4.324218-4.878907-6.042968-7.683594 51.765625 31.691406 185.457031-36.433594 308.445312-159.425781 122.984375-122.980469 191.101563-256.65625 159.417969-308.429688 2.8125 1.714844 5.375 3.71875 7.683594 6.03125zm0 0" fill="#ffb400"/><path d="m52.433594 343.585938c6.414062-11.375 13.570312-23.011719 21.375-34.800782l9.109375-13.402344c6.6875-9.589843 13.789062-19.257812 21.261719-28.949218l10.34375-13.136719c8.960937-11.144531 18.386718-22.289063 28.222656-33.351563l11.648437-12.859374c8.425781-9.128907 17.109375-18.179688 26.03125-27.101563.230469-.230469.460938-.453125.6875-.683594l12.867188-12.597656c11.535156-11.09375 23.199219-21.753906 34.917969-31.929687l14.433593-12.265626c11.148438-9.265624 22.3125-18.070312 33.429688-26.363281l16.347656-11.855469c15.582031-10.964843 31-20.867187 46.070313-29.554687 0 0 16.105468-9.003906 19.820312-10.832031 2.546875-1.3125 5.085938-2.601563 7.605469-3.839844 3.71875-1.824219 5.253906-6.320312 3.429687-10.039062-1.824218-3.71875-6.316406-5.253907-10.039062-3.425782-8.359375 4.101563-16.867188 8.628906-25.484375 13.53125-.097657.050782-.191407.109375-.285157.164063-51.941406 29.589843-107.933593 73.207031-160.640624 125.351562-.082032.078125-.164063.15625-.242188.238281-1.175781 1.164063-2.351562 2.320313-3.523438 3.492188-12.085937 12.085938-23.75 24.410156-34.929687 36.851562-.289063.273438-.554687.570313-.800781.886719-13.566406 15.140625-26.398438 30.453125-38.351563 45.746094-.394531.402344-.746093.851563-1.042969 1.339844-10.765624 13.832031-20.792968 27.632812-30.003906 41.269531-.378906.441406-.710937.929688-.984375 1.460938-10.964843 16.324218-20.722656 32.394531-29.097656 47.957031-.179687.289062-.34375.585937-.480469.902343-4.992187 9.320313-9.5 18.464844-13.449218 27.359376-1.679688 3.785156.027343 8.21875 3.8125 9.898437.988281.441406 2.023437.648437 3.039062.648437 2.875 0 5.621094-1.664062 6.859375-4.460937 3.171875-7.144531 6.71875-14.457031 10.59375-21.898437zm0 0" fill="#434c54"/><path d="m398.839844 270.324219c-3.179688-2.65625-7.910156-2.234375-10.566406.945312-17.242188 20.625-35.992188 41.089844-55.730469 60.828125-62.132813 62.132813-128.824219 112.105469-187.796875 140.722656-55.792969 27.070313-98.695313 31.6875-117.710938 12.671876-3.890625-3.890626-6.640625-8.558594-8.496094-13.742188-2.035156-6.316406-2.855468-9.277344-2.964843-15.148438-1.082031-16.441406 3.304687-35.144531 8.445312-50.730468 1.300781-3.9375-.835937-8.175782-4.769531-9.472656-3.933594-1.300782-8.175781.835937-9.472656 4.769531-8.089844 24.515625-10.875 45.648437-8.410156 62.769531.03125.460938.101562.914062.214843 1.351562 2.046875 12.589844 6.992188 22.953126 14.84375 30.808594 10.621094 10.617188 25.820313 15.898438 44.855469 15.898438 24.28125 0 54.804688-8.597656 90.011719-25.679688 60.441406-29.328125 128.574219-80.332031 191.855469-143.613281 20.054687-20.050781 39.109374-40.847656 56.636718-61.8125 2.65625-3.175781 2.230469-7.90625-.945312-10.566406zm0 0" fill="#434c54"/><path d="m496.539062 15.984375c-20.542968-20.546875-57.699218-21.300781-107.445312-2.179687-3.867188 1.488281-5.796875 5.828124-4.3125 9.691406 1.488281 3.867187 5.828125 5.796875 9.691406 4.3125 24.75-9.511719 45.976563-13.703125 62.574219-12.578125 7.140625.664062 7.453125.789062 15.140625 2.953125 5.4375 1.921875 10.050781 4.714844 13.746094 8.410156 30.960937 30.960938-1.730469 122.328125-79.507813 222.183594-2.546875 3.269531-1.960937 7.980468 1.308594 10.527344 1.371094 1.066406 2.992187 1.582031 4.605469 1.582031 2.230468 0 4.441406-.992188 5.921875-2.890625 39.980469-51.332032 68.894531-100.84375 83.617187-143.179688 15.78125-45.382812 13.933594-79.558594-5.339844-98.832031zm0 0" fill="#434c54"/><g fill="#ffc843"><path d="m276.171875 225.175781v-.9375c0-4.140625-3.359375-7.5-7.5-7.5s-7.5 3.359375-7.5 7.5v.9375c0 4.144531 3.359375 7.5 7.5 7.5s7.5-3.355469 7.5-7.5zm0 0"/><path d="m275.03125 281.175781c4.144531 0 7.5-3.359375 7.5-7.5v-.9375c0-4.144531-3.355469-7.503906-7.5-7.503906-4.140625 0-7.5 3.359375-7.5 7.503906v.9375c0 4.140625 3.359375 7.5 7.5 7.5zm0 0"/><path d="m56.542969 400.117188v.9375c0 4.140624 3.355469 7.5 7.5 7.5 4.140625 0 7.5-3.359376 7.5-7.5v-.9375c0-4.144532-3.359375-7.5-7.5-7.5-4.144531 0-7.5 3.355468-7.5 7.5zm0 0"/><path d="m417.996094 57.960938v-.9375c0-4.140626-3.359375-7.5-7.5-7.5s-7.5 3.359374-7.5 7.5v.9375c0 4.144531 3.359375 7.5 7.5 7.5s7.5-3.355469 7.5-7.5zm0 0"/><path d="m141.367188 299.75v.9375c0 4.140625 3.359374 7.5 7.5 7.5 4.140624 0 7.5-3.359375 7.5-7.5v-.9375c0-4.144531-3.359376-7.5-7.5-7.5-4.140626 0-7.5 3.355469-7.5 7.5zm0 0"/><path d="m170.257812 315.546875c-4.144531 0-7.5 3.359375-7.5 7.5v.9375c0 4.144531 3.355469 7.5 7.5 7.5 4.140626 0 7.5-3.355469 7.5-7.5v-.9375c0-4.140625-3.359374-7.5-7.5-7.5zm0 0"/></g></svg>