<svg height="512pt" viewBox="0 -57 512 511" width="512pt" xmlns="http://www.w3.org/2000/svg"><path d="m62.492188 152.519531h47.542968v29.019531h-47.542968c-14.320313 0-25.972657 11.652344-25.972657 25.972657v25.707031c0 14.324219 11.652344 25.976562 25.972657 25.976562h47.542968v29.019532h-47.542968c-30.320313 0-54.992188-24.671875-54.992188-54.996094v-25.707031c0-30.324219 24.671875-54.992188 54.992188-54.992188zm0 0" fill="#fff"/><path d="m108.390625 135.941406v163.710938c0 11.027344 2.910156 21.367187 8 30.308594 10.550781 18.558593 30.5 31.070312 53.371094 31.070312h239.226562c22.871094 0 42.820313-12.511719 53.371094-31.070312 5.089844-8.941407 8-19.28125 8-30.308594v-163.710938c0-6.410156-5.199219-11.609375-11.609375-11.609375h-338.75c-6.410156 0-11.609375 5.199219-11.609375 11.609375zm0 0" fill="#fff"/><path d="m116.390625 329.960938c10.550781 18.558593 30.5 31.070312 53.371094 31.070312h239.226562c22.871094 0 42.820313-12.511719 53.371094-31.070312zm0 0" fill="#d9dfe9"/><path d="m500.328125 303.828125c0 9.390625-1.597656 18.273437-4.4375 26.132813-6.941406 19.21875-21.289063 32.417968-37.871094 32.417968-6.800781 0-13.21875-2.21875-18.910156-6.167968-13.890625-9.601563-23.410156-29.441407-23.417969-52.382813.007813-10.6875 2.078125-20.707031 5.6875-29.339844 7.332032-17.46875 20.992188-29.21875 36.632813-29.21875 21.296875 0 38.949219 21.789063 41.886719 50.152344.28125 2.75.441406 5.558594.429687 8.40625zm0 0" fill="#ffc843"/><path d="m495.890625 329.960938c-6.941406 19.21875-21.289063 32.417968-37.871094 32.417968-6.800781 0-13.21875-2.21875-18.910156-6.167968-13.890625-9.601563-23.410156-29.441407-23.417969-52.382813.007813-10.6875 2.078125-20.707031 5.6875-29.339844 15 16.410157 22.492188 37.171875 19.980469 55.472657zm0 0" fill="#f7a500"/><path d="m349.320312 329.960938c1.621094 1.988281 3.359376 3.941406 5.238282 5.808593 21.25 21.25 50.929687 26.03125 66.292968 10.671875 4.46875-4.46875 7.226563-10.152344 8.367188-16.480468 2.820312-15.441407-3.957031-34.738282-19.027344-49.820313-21.261718-21.25-50.941406-26.03125-66.300781-10.667969-14 14-11.28125 39.917969 5.429687 60.488282zm0 0" fill="#ffc843"/><path d="m349.320312 329.960938c1.621094 1.988281 3.359376 3.941406 5.238282 5.808593 21.25 21.25 50.929687 26.03125 66.292968 10.671875 4.46875-4.46875 7.226563-10.152344 8.367188-16.480468zm0 0" fill="#f7a500"/><path d="m97.464844 390.867188h383.820312c12.820313 0 23.214844-10.390626 23.214844-23.214844v-18.722656c0-3.847657-3.117188-6.964844-6.964844-6.964844h-416.320312c-3.847656 0-6.964844 3.117187-6.964844 6.964844v18.722656c0 12.824218 10.394531 23.214844 23.214844 23.214844zm0 0" fill="#fff"/><path d="m501.945312 335.15625c3.871094-9.546875 5.886719-20.203125 5.886719-31.328125 0-17.207031-4.90625-33.46875-13.816406-45.796875-4.664063-6.453125-10.144531-11.464844-16.15625-14.894531v-107.195313c0-10.535156-8.570313-19.105468-19.105469-19.105468h-59.492187c-4.144531 0-7.5 3.355468-7.5 7.5 0 4.140624 3.355469 7.5 7.5 7.5h59.492187c2.265625 0 4.105469 1.839843 4.105469 4.105468v102.144532c-1.597656-.203126-3.214844-.308594-4.847656-.308594-19.023438 0-35.804688 13.832031-44.214844 35.433594-11.066406-10.46875-24.398437-17.382813-37.777344-19.535157-14.964843-2.414062-28.257812 1.316407-37.433593 10.496094-9.179688 9.175781-12.90625 22.46875-10.5 37.433594 1.84375 11.449219 7.167968 22.867187 15.222656 32.859375h-214.65625c-8.230469-9.710938-12.765625-22.058594-12.765625-34.816406v-63.953126c0-4.144531-3.355469-7.5-7.5-7.5-4.140625 0-7.5 3.355469-7.5 7.5v16h-38.394531c-10.183594 0-18.472657-8.289062-18.472657-18.476562v-25.707031c0-10.1875 8.289063-18.476563 18.472657-18.476563h38.398437v12.136719c0 4.140625 3.355469 7.5 7.5 7.5 4.140625 0 7.5-3.359375 7.5-7.5v-65.230469c0-2.265625 1.839844-4.109375 4.105469-4.109375h244.742187c4.144531 0 7.5-3.355469 7.5-7.5 0-4.140625-3.355469-7.5-7.5-7.5h-244.742187c-10.535156 0-19.105469 8.570313-19.105469 19.109375v9.078125h-38.398437c-34.457032 0-62.492188 28.035157-62.492188 62.492188v25.707031c0 34.460938 28.035156 62.496094 62.492188 62.496094h38.398437v3.9375c0 12.308594 3.300781 24.320312 9.445313 34.8125h-29.121094c-7.976563 0-14.464844 6.488281-14.464844 14.464844v18.722656c0 16.9375 13.777344 30.71875 30.714844 30.71875h149.273437c4.140625 0 7.5-3.359375 7.5-7.5 0-4.144532-3.359375-7.5-7.5-7.5h-149.273437c-8.664063 0-15.714844-7.050782-15.714844-15.71875v-18.1875h415.25v18.1875c0 8.667968-7.050781 15.71875-15.714844 15.71875h-200.023437c-4.144531 0-7.5 3.355468-7.5 7.5 0 4.140625 3.355469 7.5 7.5 7.5h200.023437c16.9375 0 30.714844-13.78125 30.714844-30.71875v-18.722656c0-6.441407-4.230469-11.902344-10.054688-13.773438zm-439.453124-54.441406c-26.1875 0-47.492188-21.308594-47.492188-47.496094v-25.707031c0-26.1875 21.304688-47.492188 47.492188-47.492188h38.398437v14.019531h-38.398437c-18.457032 0-33.472657 15.015626-33.472657 33.476563v25.703125c0 18.460938 15.015625 33.476562 33.472657 33.476562h38.398437v14.019532zm430.339843 23.113281c0 11.035156-2.503906 21.804687-7.074219 30.636719h-20.246093v-80.484375c15.605469 5.046875 27.320312 25.472656 27.320312 49.847656zm-42.316406-49.796875v80.433594h-14.621094c3.773438-14.65625-.203125-32.371094-10.644531-47.804688 4.085938-16.5 13.847656-28.804687 25.265625-32.628906zm-45.632813 31.414062c14.945313 14.945313 21.164063 35.488282 15.195313 49.019532h-.59375l-64.007813-64.011719c13.363282-6.121094 34.101563-.308594 49.40625 14.992187zm-45.023437 45.023438c-9.171875-9.171875-15.195313-20.269531-16.960937-31.246094-1.109376-6.886718-.414063-13.117187 1.945312-18.1875l53.425781 53.429688h-34.046875c-1.496094-1.261719-2.964844-2.601563-4.363281-3.996094zm0 0" fill="#474d54"/><g fill="#c2c7d0"><path d="m231.863281 97.875c1.917969 0 3.835938-.734375 5.300781-2.195312 2.929688-2.933594 2.929688-7.679688 0-10.609376-1.394531-1.394531-2.160156-3.246093-2.160156-5.21875 0-1.972656.765625-3.828124 2.160156-5.222656l40.277344-40.277344c8.730469-8.726562 8.730469-22.929687 0-31.65625-2.929687-2.925781-7.675781-2.925781-10.605468 0-2.929688 2.929688-2.929688 7.679688 0 10.609376 2.878906 2.878906 2.878906 7.5625 0 10.4375l-40.277344 40.277343c-8.726563 8.730469-8.726563 22.929688 0 31.65625 1.464844 1.464844 3.382812 2.199219 5.304687 2.199219zm0 0"/><path d="m319.605469 18.523438c0 1.972656-.769531 3.828124-2.164063 5.222656l-40.277344 40.277344c-8.726562 8.726562-8.726562 22.925781 0 31.65625 1.464844 1.460937 3.386719 2.195312 5.304688 2.195312s3.839844-.734375 5.304688-2.195312c2.925781-2.933594 2.925781-7.679688 0-10.609376-2.878907-2.878906-2.878907-7.5625 0-10.441406l40.273437-40.277344c4.230469-4.226562 6.558594-9.847656 6.558594-15.828124 0-5.976563-2.328125-11.597657-6.558594-15.828126-2.929687-2.925781-7.675781-2.925781-10.605469.003907-2.929687 2.929687-2.929687 7.675781 0 10.605469 1.394532 1.394531 2.164063 3.246093 2.164063 5.21875zm0 0"/><path d="m368.050781 23.742188-40.277343 40.277343c-8.726563 8.730469-8.726563 22.929688 0 31.65625 1.464843 1.464844 3.382812 2.195313 5.300781 2.195313 1.921875 0 3.839843-.730469 5.304687-2.195313 2.929688-2.929687 2.929688-7.675781 0-10.605469-2.878906-2.878906-2.878906-7.5625 0-10.441406l40.277344-40.277344c8.726562-8.726562 8.726562-22.929687 0-31.65625-2.929688-2.925781-7.679688-2.925781-10.605469 0-2.929687 2.929688-2.929687 7.679688 0 10.609376 2.878907 2.878906 2.878907 7.5625 0 10.4375zm0 0"/></g></svg>