<?xml version="1.0" encoding="iso-8859-1"?>
<!-- Generator: Adobe Illustrator 19.0.0, SVG Export Plug-In . SVG Version: 6.00 Build 0)  -->
<svg version="1.1" id="Capa_1" xmlns="http://www.w3.org/2000/svg" xmlns:xlink="http://www.w3.org/1999/xlink" x="0px" y="0px"
	 viewBox="0 0 512.001 512.001" style="enable-background:new 0 0 512.001 512.001;" xml:space="preserve">
<path style="fill:#FFC850;" d="M294.495,203.86c-0.194-2.272,1.598-4.224,3.879-4.224c-0.366,0,6.091,0,16.881,0v-31.421
	c-33.842-31.873-79.433-51.411-129.592-51.411c-80.486,0-149.222,50.293-176.504,121.166c-6.333,16.452,5.813,34.147,23.443,34.147
	H300.57L294.495,203.86z"/>
<path style="fill:#FEA82F;" d="M30.491,237.969c26.062-67.702,89.953-116.621,165.776-120.863c-3.51-0.194-7.043-0.304-10.604-0.304
	c-80.486,0-149.222,50.293-176.504,121.166c-6.333,16.452,5.813,34.147,23.443,34.147h21.331
	C36.305,272.116,24.159,254.421,30.491,237.969z"/>
<path style="fill:#FFC850;" d="M313.051,418.513l-4.992-58.562H22.771c-8.421,0-15.311,6.89-15.311,15.311v11.259
	c0,19.555,16,35.555,35.555,35.555H316.93C314.908,422.075,313.223,420.528,313.051,418.513z"/>
<path style="fill:#FEA82F;" d="M27.462,386.52v-11.259c0-8.421,6.889-15.311,15.311-15.311H22.771
	c-8.421,0-15.311,6.89-15.311,15.311v11.259c0,19.555,16,35.555,35.555,35.555h20.001C43.462,422.075,27.462,406.075,27.462,386.52z
	"/>
<path style="fill:#FFFFFF;" d="M107.218,359.951l62.317,54.144c8.909,7.74,23.35,7.74,32.259,0l62.317-54.144H107.218z"/>
<path style="fill:#E4EAF8;" d="M189.536,414.095l-62.317-54.144h-20.001l62.317,54.144c7.071,6.144,17.621,7.392,26.131,3.782
	C193.454,416.94,191.373,415.692,189.536,414.095z"/>
<path style="fill:#92E0C0;" d="M292.793,287.619c-0.325-3.493,2.423-6.508,5.93-6.508h2.613l-0.767-8.994H37.914
	c4.698,28.599,29.531,50.417,59.46,50.417c12.839,0,24.715-4.039,34.476-10.896c5.835-4.098,13.515-4.098,19.35-0.001
	c9.763,6.856,21.637,10.896,34.477,10.896c12.475,0,24.038-3.814,33.64-10.319c6.355-4.305,14.539-4.418,20.882-0.095
	c10.352,7.056,22.999,10.977,36.618,10.349c6.596-0.304,12.935-1.722,18.844-4.046L292.793,287.619z"/>
<path style="fill:#6DC296;" d="M57.916,272.116H37.914c4.698,28.598,29.531,50.417,59.46,50.417c3.41,0,6.749-0.293,10.002-0.84
	C82.057,317.463,62.08,297.458,57.916,272.116z"/>
<path style="fill:#FF9052;" d="M307.471,353.075h-3.152c-3.075,0-5.645-2.341-5.93-5.403l-2.725-29.254
	c-5.908,2.326-12.247,3.745-18.844,4.05c-13.618,0.629-26.267-3.292-36.617-10.349c-6.343-4.324-14.527-4.21-20.882,0.095
	c-9.601,6.505-21.165,10.319-33.64,10.319c-12.841,0-24.716-4.039-34.477-10.896c-5.835-4.098-13.515-4.097-19.35,0.001
	c-9.762,6.855-21.637,10.895-34.476,10.895c-15.209,0-29.095-5.642-39.698-14.938h-0.646c-14.458,0-26.178,11.721-26.178,26.179
	c0,14.457,11.72,26.178,26.178,26.178h251.028L307.471,353.075z"/>
<path style="fill:#FF8031;" d="M50.854,333.774c0-9.273,4.825-17.413,12.097-22.063c-1.832-1.279-3.599-2.645-5.275-4.115H57.03
	c-14.458,0-26.178,11.721-26.178,26.179c0,14.457,11.72,26.178,26.178,26.178h20.001C62.574,359.95,50.854,348.231,50.854,333.774z"
	/>
<path style="fill:#FFC850;" d="M393.208,130.1h-18.974c-2.498,0-4.53,2.058-4.53,4.588v97.543h28.036v-97.543
	C397.739,132.158,395.706,130.1,393.208,130.1z"/>
<path style="fill:#FEA82F;" d="M393.722,130.153c-0.171-0.02-0.338-0.052-0.513-0.052h-18.975c-2.498,0-4.53,2.058-4.53,4.588
	v97.543h20.001v-97.543C389.704,132.336,391.466,130.415,393.722,130.153z"/>
<path style="fill:#FFC850;" d="M337.636,120.079h-18.975c-2.498,0-4.53,2.058-4.53,4.588v73.488h28.036v-73.488
	C342.167,122.137,340.134,120.079,337.636,120.079z"/>
<path style="fill:#FEA82F;" d="M338.149,120.131c-0.171-0.02-0.337-0.052-0.513-0.052h-18.975c-2.498,0-4.53,2.058-4.53,4.588
	v73.488h20.001v-73.488C334.132,122.315,335.895,120.393,338.149,120.131z"/>
<path style="fill:#FFC850;" d="M365.422,100.215h-18.975c-2.498,0-4.53,2.058-4.53,4.588v98.352h8.522v12.65
	c0,9.058,7.274,16.426,16.215,16.426h3.298V104.803C369.953,102.273,367.92,100.215,365.422,100.215z"/>
<path style="fill:#FEA82F;" d="M361.919,104.803c0-2.352,1.763-4.273,4.017-4.535c-0.171-0.02-0.337-0.052-0.513-0.052h-18.975
	c-2.498,0-4.53,2.058-4.53,4.588v98.352h8.522v12.65c0,7.388,4.842,13.649,11.48,15.707V104.803z"/>
<path style="fill:#FFC850;" d="M420.993,89.8h-18.974c-2.498,0-4.53,2.058-4.53,4.588V232.23h28.036V94.389
	C425.525,91.86,423.491,89.8,420.993,89.8z"/>
<path style="fill:#FEA82F;" d="M421.507,89.853c-0.171-0.02-0.338-0.052-0.513-0.052H402.02c-2.498,0-4.53,2.058-4.53,4.588v137.842
	h20.001V94.389C417.49,92.038,419.253,90.115,421.507,89.853z"/>
<path style="fill:#FFC850;" d="M448.779,120.079h-18.974c-2.498,0-4.53,2.058-4.53,4.588v107.564h3.069
	c8.942,0,16.216-7.368,16.216-16.426v-11.65h8.751v-79.488C453.31,122.137,451.278,120.079,448.779,120.079z"/>
<path style="fill:#FEA82F;" d="M445.276,124.668c0-2.352,1.763-4.274,4.017-4.536c-0.171-0.02-0.338-0.052-0.513-0.052h-18.974
	c-2.498,0-4.53,2.058-4.53,4.588v107.564h3.069c8.942,0,16.216-7.368,16.216-16.426v-11.65h0.716v-79.488H445.276z"/>
<path style="fill:#FFC850;" d="M476.566,100.215h-18.974c-2.498,0-4.531,2.058-4.531,4.588v93.352h28.036v-93.352
	C481.096,102.273,479.064,100.215,476.566,100.215z"/>
<path style="fill:#FEA82F;" d="M477.079,100.268c-0.171-0.02-0.338-0.052-0.513-0.052h-18.974c-2.498,0-4.531,2.058-4.531,4.588
	v93.352h20.001v-93.352C473.062,102.451,474.825,100.53,477.079,100.268z"/>
<path style="fill:#FFFFFF;" d="M306.471,351.075l5.578,67.438c0.172,2.015,1.857,3.563,3.879,3.563h163.139
	c2.022,0,3.707-1.548,3.879-3.563l5.578-67.438H306.471z"/>
<path style="fill:#E4EAF8;" d="M332.509,418.513l-5.578-67.438h-20.459l5.578,67.438c0.172,2.015,1.857,3.563,3.879,3.563h20.459
	C334.367,422.075,332.681,420.528,332.509,418.513z"/>
<path style="fill:#FFFFFF;" d="M501.099,198.556c-0.83-0.903-2.009-1.421-3.235-1.421h-49.569c-2.272,0-4.121,1.849-4.121,4.121
	v13.924c0,8.597-6.993,15.59-15.59,15.59h-61.69c-8.597,0-15.591-6.993-15.591-15.59v-12.254c0-3.193-2.599-5.791-5.793-5.791H297.6
	c-1.222,0.004-2.395,0.522-3.221,1.422c-0.83,0.903-1.246,2.123-1.142,3.344l6.879,82.71h195.245l6.879-82.709
	C502.345,200.679,501.929,199.459,501.099,198.556z"/>
<path style="fill:#D8DCE5;" d="M464.175,215.18v-13.924c0-2.272,1.849-4.121,4.121-4.121h-20.001c-2.272,0-4.121,1.849-4.121,4.121
	v13.924c0,8.597-6.993,15.59-15.59,15.59h20.001C457.182,230.77,464.175,223.777,464.175,215.18z"/>
<path style="fill:#E4EAF8;" d="M314.379,198.557c0.826-0.9,2-1.417,3.221-1.422h-20.001c-1.222,0.004-2.395,0.522-3.221,1.422
	c-0.83,0.903-1.246,2.123-1.142,3.344l6.879,82.71h20.001l-6.879-82.71C313.133,200.679,313.549,199.46,314.379,198.557z"/>
<path style="fill:#ABFFDB;" d="M497.503,281.11H297.724c-3.507,0-6.255,3.015-5.93,6.508l5.594,60.053
	c0.285,3.062,2.855,5.403,5.93,5.403h188.591c3.075,0,5.645-2.341,5.93-5.403l5.594-60.053
	C503.76,284.126,501.011,281.11,497.503,281.11z"/>
<path style="fill:#92E0C0;" d="M495.623,333.407H299.605c-1.363,0-2.628-0.446-3.657-1.2l1.441,15.465
	c0.285,3.062,2.855,5.403,5.93,5.403H491.91c3.075,0,5.645-2.341,5.93-5.403l1.441-15.465
	C498.251,332.962,496.986,333.407,495.623,333.407z"/>
<g>
	<path style="fill:#FF8031;" d="M89.329,175.592c-4.142,0-7.5-3.358-7.5-7.5v-24.914c0-4.142,3.358-7.5,7.5-7.5s7.5,3.358,7.5,7.5
		v24.914C96.829,172.234,93.471,175.592,89.329,175.592z"/>
	<path style="fill:#FF8031;" d="M137.517,175.592c-4.142,0-7.5-3.358-7.5-7.5v-45.089c0-4.142,3.358-7.5,7.5-7.5s7.5,3.358,7.5,7.5
		v45.089C145.017,172.234,141.659,175.592,137.517,175.592z"/>
	<path style="fill:#FF8031;" d="M185.705,175.592c-4.142,0-7.5-3.358-7.5-7.5v-51.288c0-4.142,3.358-7.5,7.5-7.5s7.5,3.358,7.5,7.5
		v51.288C193.205,172.234,189.847,175.592,185.705,175.592z"/>
	<path style="fill:#FF8031;" d="M233.893,175.592c-4.142,0-7.5-3.358-7.5-7.5v-45.089c0-4.142,3.358-7.5,7.5-7.5s7.5,3.358,7.5,7.5
		v45.089C241.393,172.234,238.035,175.592,233.893,175.592z"/>
	<path style="fill:#FF8031;" d="M282.081,175.592c-4.142,0-7.5-3.358-7.5-7.5v-24.914c0-4.142,3.358-7.5,7.5-7.5
		c4.142,0,7.5,3.358,7.5,7.5v24.914C289.581,172.234,286.223,175.592,282.081,175.592z"/>
</g>
<path style="fill:#474D54;" d="M508.491,278.003c-1.322-1.451-2.936-2.58-4.712-3.33l6.238-73.179
	c0.27-3.169-0.81-6.331-2.962-8.675c-2.151-2.343-5.21-3.686-8.392-3.686h-9.153V104.61c0-6.564-5.341-11.906-11.907-11.906H458.63
	c-6.564,0-11.906,5.341-11.906,11.906v7.701h-12.785V94.331c0-6.564-5.341-11.906-11.906-11.906h-18.975
	c-6.564,0-11.906,5.341-11.906,11.906v27.874h-12.785v-17.593c0-6.564-5.341-11.906-11.906-11.906h-18.975
	c-6.564,0-11.906,5.341-11.906,11.906v7.701h-15.879c-6.565,0-11.907,5.341-11.907,11.906v27.594
	c-34.651-27.522-77.409-42.51-122.091-42.51c-40.513,0-79.415,12.227-112.501,35.358C40.87,167.267,16.317,198.6,2.2,235.275
	c-3.862,10.035-2.534,21.318,3.553,30.185c5.944,8.657,15.669,13.906,26.134,14.148c2.254,8.6,6.133,16.539,11.355,23.459
	c-11.694,5.287-19.85,17.063-19.85,30.708c0,6.903,2.088,13.328,5.666,18.676h-6.246C10.233,352.45,0,362.683,0,375.261v11.259
	c0,23.741,19.314,43.056,43.056,43.056h338.097c4.142,0,7.5-3.358,7.5-7.5c0-4.142-3.358-7.5-7.5-7.5h-60.87l-4.603-54l0,0H481.4
	l-4.603,54h-60.642c-4.142,0-7.5,3.358-7.5,7.5c0,4.142,3.358,7.5,7.5,7.5h63.954c5.965,0,10.846-4.482,11.354-10.427l5.033-59.042
	c5.308-1.429,9.318-6.003,9.852-11.742l1.218-13.078c0.384-4.125-2.648-7.779-6.772-8.165c-4.128-0.38-7.779,2.648-8.165,6.772
	l-1.087,11.677H305.766l0,0c0-0.003,0,0.002,0,0l-5.306-56.964h196.389l-0.958,10.285c-0.384,4.125,2.648,7.779,6.772,8.165
	c4.134,0.384,7.78-2.647,8.165-6.772l1.115-11.973C512.293,284.554,511.035,280.795,508.491,278.003z M461.726,107.707h12.785
	v81.428h-12.785V107.707z M446.725,127.314v61.82h-1.25c-4.142,0-7.5,3.358-7.5,7.5v17.545c0,0.066-0.001,0.132-0.003,0.198
	c0,0.015-0.001,0.03-0.001,0.045c-0.002,0.064-0.004,0.128-0.007,0.191c0,0.01-0.001,0.019-0.002,0.028
	c-0.003,0.057-0.007,0.114-0.011,0.17c-0.001,0.016-0.002,0.031-0.003,0.047c-0.005,0.063-0.01,0.125-0.017,0.187
	c-0.001,0.011-0.003,0.023-0.004,0.035c-0.006,0.055-0.012,0.111-0.019,0.166c-0.002,0.013-0.003,0.026-0.005,0.039
	c-0.008,0.062-0.017,0.123-0.026,0.184c-0.002,0.015-0.005,0.031-0.007,0.046c-0.008,0.052-0.017,0.105-0.026,0.157
	c-0.002,0.012-0.004,0.024-0.006,0.036c-0.011,0.06-0.022,0.12-0.035,0.18c-0.003,0.016-0.006,0.031-0.01,0.047
	c-0.011,0.055-0.023,0.11-0.036,0.164c-0.002,0.007-0.003,0.015-0.005,0.022c-0.014,0.06-0.029,0.119-0.044,0.178
	c-0.004,0.016-0.008,0.032-0.012,0.048c-0.015,0.058-0.031,0.116-0.047,0.174c-0.001,0.005-0.003,0.01-0.004,0.014
	c-0.016,0.056-0.032,0.111-0.049,0.166c-0.006,0.018-0.011,0.036-0.017,0.054c-0.018,0.055-0.035,0.111-0.054,0.166
	c-0.004,0.012-0.008,0.024-0.012,0.036c-0.016,0.047-0.033,0.093-0.049,0.14c-0.006,0.018-0.013,0.036-0.019,0.053
	c-0.02,0.054-0.04,0.108-0.062,0.161c-0.005,0.014-0.011,0.028-0.017,0.042c-0.018,0.045-0.036,0.089-0.055,0.134
	c-0.007,0.016-0.014,0.032-0.021,0.049c-0.022,0.052-0.045,0.104-0.068,0.155c-0.008,0.018-0.016,0.036-0.025,0.054
	c-0.018,0.04-0.037,0.08-0.056,0.12c-0.008,0.016-0.015,0.032-0.023,0.048c-0.024,0.05-0.049,0.099-0.074,0.148
	c-0.01,0.019-0.02,0.038-0.03,0.057c-0.022,0.042-0.044,0.084-0.067,0.126c-0.006,0.01-0.011,0.021-0.017,0.032
	c-0.027,0.049-0.055,0.098-0.082,0.147c-0.011,0.019-0.022,0.038-0.033,0.057c-0.024,0.041-0.048,0.082-0.073,0.123
	c-0.011,0.018-0.021,0.035-0.032,0.053c-0.024,0.04-0.049,0.08-0.074,0.119c-0.012,0.019-0.024,0.037-0.036,0.056
	c-0.03,0.046-0.06,0.092-0.09,0.136c-0.01,0.015-0.02,0.029-0.03,0.043c-0.024,0.035-0.048,0.07-0.073,0.105
	c-0.012,0.017-0.024,0.034-0.036,0.051c-0.032,0.045-0.065,0.09-0.098,0.135c-0.01,0.014-0.021,0.028-0.032,0.042
	c-0.027,0.035-0.053,0.07-0.081,0.105c-0.012,0.015-0.023,0.03-0.035,0.045c-0.034,0.043-0.069,0.086-0.104,0.129
	c-0.012,0.015-0.024,0.029-0.036,0.044c-0.029,0.034-0.057,0.068-0.086,0.102c-0.011,0.013-0.022,0.026-0.034,0.039
	c-0.036,0.042-0.073,0.083-0.11,0.124c-0.013,0.015-0.027,0.029-0.04,0.044c-0.032,0.035-0.065,0.071-0.098,0.105
	c-0.008,0.009-0.017,0.018-0.025,0.027c-0.039,0.041-0.079,0.082-0.119,0.122c-0.014,0.014-0.027,0.027-0.041,0.041
	c-0.038,0.037-0.076,0.075-0.114,0.112c-0.008,0.008-0.016,0.016-0.025,0.024c-0.039,0.037-0.078,0.073-0.117,0.109
	c-0.013,0.012-0.027,0.024-0.04,0.036c-0.043,0.039-0.086,0.077-0.13,0.115c-0.008,0.007-0.015,0.013-0.023,0.02
	c-0.041,0.035-0.082,0.07-0.123,0.104c-0.01,0.008-0.019,0.016-0.029,0.024c-0.046,0.038-0.093,0.076-0.14,0.113
	c-0.009,0.007-0.018,0.014-0.028,0.021c-0.044,0.035-0.089,0.069-0.133,0.102c-0.006,0.004-0.012,0.009-0.018,0.013
	c-0.05,0.038-0.101,0.075-0.152,0.111c-0.008,0.006-0.017,0.012-0.025,0.018c-0.047,0.033-0.094,0.066-0.141,0.098
	c-0.006,0.004-0.012,0.008-0.017,0.012c-0.053,0.036-0.107,0.071-0.161,0.106c-0.006,0.004-0.011,0.007-0.017,0.01
	c-0.02,0.013-0.041,0.025-0.061,0.038v-94.145h12.788V127.314z M406.154,97.426h12.785V222.77h-12.785V97.426z M391.153,137.205
	v85.564h-12.785v-85.564L391.153,137.205L391.153,137.205z M350.583,107.707h12.785v113.892c-0.097-0.057-0.193-0.115-0.288-0.176
	c-0.007-0.004-0.014-0.009-0.021-0.013c-0.109-0.07-0.217-0.143-0.322-0.218c-0.007-0.005-0.013-0.01-0.02-0.014
	c-0.105-0.075-0.208-0.152-0.31-0.232c-0.007-0.006-0.015-0.011-0.022-0.017c-0.1-0.079-0.199-0.16-0.296-0.244
	c-0.008-0.006-0.015-0.013-0.023-0.02c-0.096-0.084-0.191-0.17-0.284-0.258c-0.007-0.007-0.014-0.013-0.021-0.02
	c-0.092-0.088-0.181-0.178-0.269-0.269c-0.008-0.008-0.016-0.016-0.024-0.025c-0.088-0.092-0.174-0.187-0.257-0.283
	c-0.006-0.006-0.011-0.013-0.017-0.019c-0.084-0.097-0.166-0.196-0.245-0.297c-0.006-0.008-0.012-0.016-0.018-0.023
	c-0.078-0.099-0.153-0.2-0.226-0.302c-0.008-0.011-0.016-0.021-0.023-0.032c-0.073-0.103-0.143-0.207-0.212-0.313l-0.018-0.028
	c-0.068-0.106-0.134-0.215-0.197-0.324c-0.006-0.01-0.012-0.021-0.018-0.032c-0.063-0.11-0.124-0.221-0.182-0.334
	c-0.005-0.01-0.01-0.02-0.015-0.03c-0.058-0.114-0.114-0.229-0.167-0.345c-0.005-0.01-0.01-0.021-0.014-0.031
	c-0.052-0.116-0.102-0.234-0.149-0.353c-0.005-0.011-0.009-0.023-0.013-0.034c-0.046-0.118-0.09-0.238-0.132-0.358
	c-0.004-0.013-0.009-0.026-0.013-0.039c-0.04-0.12-0.078-0.241-0.113-0.363c-0.004-0.013-0.008-0.027-0.011-0.04
	c-0.034-0.122-0.066-0.244-0.095-0.368c-0.004-0.016-0.007-0.032-0.011-0.048c-0.014-0.061-0.027-0.121-0.04-0.182
	c-0.001-0.003-0.001-0.006-0.002-0.008c-0.012-0.059-0.023-0.119-0.034-0.179c-0.003-0.017-0.006-0.033-0.009-0.05
	c-0.022-0.125-0.041-0.252-0.058-0.379c-0.002-0.015-0.004-0.03-0.006-0.044c-0.008-0.064-0.016-0.129-0.022-0.193
	c0-0.001,0-0.002,0-0.003c-0.006-0.062-0.012-0.125-0.017-0.188c-0.001-0.018-0.003-0.035-0.004-0.053
	c-0.004-0.061-0.008-0.121-0.012-0.182c0-0.007-0.001-0.014-0.001-0.021c-0.003-0.061-0.005-0.122-0.007-0.183
	c0-0.018-0.001-0.035-0.001-0.053c-0.001-0.065-0.002-0.13-0.002-0.195v-17.545c0-4.142-3.358-7.5-7.5-7.5h-1.021v-81.431H350.583z
	 M322.796,127.314h12.785v61.82h-12.785V127.314z M18.12,256.968c-3.337-4.861-4.037-10.805-1.92-16.305
	c26.791-69.598,94.909-116.36,169.505-116.36c45.377,0,88.603,16.732,122.091,47.188v17.643H298.4c-0.023,0-0.046,0-0.07,0
	c-0.098,0.001-0.197,0.003-0.295,0.006c-0.105,0.003-0.209,0.009-0.314,0.015c-1.718,0.105-3.382,0.601-4.867,1.431
	c-1.047,0.585-2.006,1.336-2.831,2.234c-1.517,1.653-2.5,3.712-2.854,5.895c-0.022,0.138-0.043,0.277-0.06,0.416
	c-0.005,0.039-0.009,0.078-0.013,0.116c-0.085,0.741-0.098,1.493-0.034,2.246v0.001l5.381,63.119H32.644
	C26.751,264.615,21.457,261.828,18.12,256.968z M282.966,314.255c-0.11,0.02-0.221,0.038-0.331,0.057
	c-0.026,0.004-0.051,0.009-0.077,0.013c-0.099,0.017-0.199,0.033-0.299,0.049c-0.027,0.004-0.054,0.009-0.082,0.013
	c-0.079,0.013-0.158,0.025-0.237,0.037c-10.155,1.579-20.596,0.112-29.992-4.251c-0.004-0.002-0.009-0.004-0.013-0.006
	c-0.102-0.047-0.203-0.095-0.304-0.143c-0.008-0.004-0.017-0.008-0.025-0.012c-0.098-0.046-0.196-0.093-0.294-0.14
	c-0.014-0.007-0.028-0.013-0.042-0.02c-0.094-0.045-0.188-0.091-0.282-0.137c-0.015-0.008-0.03-0.015-0.045-0.022
	c-0.392-0.192-0.783-0.39-1.171-0.593c-0.026-0.014-0.052-0.027-0.079-0.041c-0.067-0.035-0.133-0.07-0.2-0.105
	c-0.046-0.024-0.093-0.049-0.139-0.074c-0.061-0.033-0.123-0.066-0.184-0.099c-0.051-0.027-0.101-0.055-0.152-0.082
	c-0.057-0.031-0.115-0.063-0.172-0.094c-0.056-0.031-0.112-0.062-0.167-0.092c-0.057-0.031-0.113-0.063-0.169-0.094
	c-0.055-0.031-0.109-0.061-0.164-0.092c-0.054-0.03-0.108-0.061-0.161-0.091c-0.061-0.035-0.122-0.07-0.183-0.104
	c-0.049-0.028-0.098-0.056-0.148-0.084c-0.072-0.041-0.143-0.083-0.215-0.125c-0.037-0.021-0.074-0.043-0.111-0.064
	c-0.109-0.064-0.219-0.129-0.328-0.194c-0.019-0.011-0.038-0.022-0.056-0.034c-0.092-0.055-0.184-0.11-0.276-0.166
	c-0.036-0.021-0.072-0.043-0.107-0.065c-0.072-0.043-0.143-0.087-0.215-0.131c-0.041-0.025-0.082-0.051-0.123-0.076
	c-0.073-0.045-0.145-0.09-0.218-0.135c-0.036-0.022-0.072-0.045-0.107-0.067c-0.071-0.045-0.142-0.09-0.213-0.135
	c-0.042-0.027-0.084-0.053-0.126-0.08c-0.069-0.044-0.137-0.088-0.206-0.132c-0.04-0.026-0.08-0.052-0.12-0.077
	c-0.066-0.043-0.132-0.086-0.198-0.13c-0.043-0.029-0.087-0.057-0.13-0.085c-0.076-0.05-0.152-0.101-0.227-0.151
	c-0.029-0.02-0.059-0.039-0.088-0.059c-0.108-0.073-0.216-0.146-0.323-0.219c-0.092-0.063-0.185-0.125-0.278-0.187
	c-0.115-0.076-0.23-0.152-0.346-0.226c-0.012-0.007-0.023-0.015-0.035-0.022c-0.128-0.082-0.257-0.163-0.386-0.242
	c-0.02-0.012-0.039-0.024-0.059-0.036c-0.122-0.074-0.245-0.148-0.368-0.221c-0.008-0.005-0.016-0.009-0.024-0.014
	c-0.134-0.079-0.268-0.156-0.403-0.232c-0.022-0.012-0.044-0.024-0.066-0.037c-0.05-0.028-0.101-0.056-0.152-0.084
	c-0.015-0.009-0.031-0.017-0.046-0.025c-0.056-0.031-0.112-0.061-0.168-0.091c-0.04-0.022-0.08-0.043-0.12-0.064
	c-0.031-0.016-0.062-0.033-0.093-0.049c-0.039-0.021-0.079-0.041-0.118-0.061c-0.035-0.018-0.069-0.036-0.104-0.054
	c-0.038-0.019-0.075-0.038-0.113-0.057c-0.034-0.017-0.068-0.035-0.102-0.052c-0.039-0.019-0.078-0.039-0.116-0.058
	c-0.035-0.018-0.07-0.035-0.105-0.052c-0.04-0.02-0.079-0.039-0.119-0.058c-0.033-0.016-0.066-0.032-0.098-0.048
	c-0.036-0.017-0.072-0.034-0.108-0.051c-0.039-0.018-0.077-0.037-0.116-0.055c-0.028-0.013-0.055-0.025-0.083-0.038
	c-0.047-0.022-0.093-0.043-0.14-0.065c-0.027-0.012-0.054-0.024-0.081-0.036c-0.046-0.021-0.092-0.042-0.138-0.062
	c-0.043-0.019-0.086-0.038-0.13-0.057c-0.03-0.013-0.06-0.026-0.09-0.04c-0.038-0.016-0.076-0.032-0.114-0.049
	c-0.038-0.017-0.077-0.033-0.115-0.049c-0.03-0.012-0.059-0.025-0.089-0.037c-0.044-0.019-0.089-0.037-0.134-0.056
	c-0.031-0.012-0.061-0.025-0.092-0.037c-0.045-0.018-0.09-0.036-0.134-0.054c-0.041-0.016-0.082-0.032-0.123-0.049
	c-0.031-0.012-0.063-0.025-0.094-0.037c-0.045-0.017-0.09-0.035-0.135-0.052c-0.032-0.012-0.064-0.024-0.096-0.037
	c-0.046-0.017-0.092-0.034-0.138-0.052c-0.028-0.01-0.056-0.021-0.084-0.031c-0.049-0.018-0.099-0.036-0.148-0.054
	c-0.027-0.01-0.053-0.019-0.08-0.029c-0.055-0.02-0.111-0.039-0.167-0.059c-0.019-0.007-0.038-0.013-0.057-0.02
	c-0.057-0.02-0.113-0.039-0.17-0.058c-0.02-0.007-0.039-0.013-0.059-0.02c-0.048-0.016-0.096-0.032-0.144-0.048
	c-0.031-0.01-0.061-0.02-0.092-0.03c-0.052-0.017-0.104-0.033-0.156-0.05c-0.022-0.007-0.043-0.014-0.065-0.021
	c-0.06-0.019-0.12-0.037-0.18-0.056c-0.016-0.005-0.033-0.01-0.049-0.015c-0.055-0.017-0.111-0.033-0.166-0.05
	c-0.023-0.007-0.045-0.014-0.068-0.02c-0.062-0.018-0.124-0.036-0.186-0.054c-0.012-0.004-0.025-0.007-0.037-0.011
	c-0.068-0.019-0.136-0.038-0.204-0.057c-0.009-0.002-0.017-0.005-0.026-0.007c-0.063-0.018-0.127-0.035-0.191-0.052
	c-0.015-0.004-0.03-0.008-0.045-0.012c-0.061-0.016-0.123-0.032-0.184-0.048c-0.016-0.004-0.032-0.008-0.047-0.012
	c-0.064-0.016-0.128-0.032-0.192-0.048c-0.013-0.003-0.026-0.006-0.039-0.01c-0.069-0.017-0.138-0.033-0.207-0.05
	c-0.008-0.002-0.015-0.004-0.023-0.005c-0.073-0.017-0.146-0.034-0.22-0.051c-0.004-0.001-0.007-0.002-0.011-0.002
	c-0.075-0.017-0.15-0.033-0.224-0.05c-0.003-0.001-0.006-0.001-0.009-0.002c-0.071-0.016-0.143-0.031-0.215-0.045
	c-0.007-0.001-0.015-0.003-0.022-0.005c-0.074-0.015-0.148-0.03-0.221-0.045c-0.003,0-0.006-0.001-0.01-0.002
	c-0.076-0.015-0.152-0.03-0.228-0.044c-0.002,0-0.003-0.001-0.005-0.001c-0.227-0.042-0.454-0.082-0.682-0.118
	c-0.01-0.001-0.02-0.003-0.029-0.005c-0.07-0.011-0.141-0.022-0.211-0.032c-0.007-0.001-0.014-0.002-0.022-0.003
	c-0.233-0.035-0.466-0.066-0.699-0.094c-0.002,0-0.004,0-0.006-0.001c-2.933-0.354-5.917-0.201-8.826,0.459h-0.001
	c-0.783,0.178-1.561,0.392-2.331,0.643c-0.006,0.002-0.013,0.004-0.019,0.006c-0.073,0.024-0.146,0.048-0.219,0.073
	c-0.004,0.001-0.008,0.003-0.012,0.004c-0.068,0.023-0.137,0.047-0.205,0.07l-0.03,0.01c-0.143,0.05-0.286,0.101-0.428,0.153
	c-0.012,0.004-0.023,0.009-0.035,0.013c-0.074,0.027-0.148,0.055-0.222,0.083c-0.001,0-0.002,0.001-0.003,0.001
	c-0.142,0.054-0.284,0.109-0.425,0.166c-0.013,0.005-0.025,0.01-0.038,0.015c-0.072,0.029-0.143,0.058-0.215,0.087
	c-0.003,0.001-0.006,0.003-0.009,0.004c-0.14,0.058-0.28,0.117-0.419,0.177c-0.013,0.006-0.027,0.011-0.04,0.017
	c-0.053,0.023-0.106,0.046-0.158,0.07c-0.024,0.01-0.047,0.021-0.071,0.031c-0.051,0.023-0.102,0.046-0.152,0.069
	c-0.024,0.011-0.048,0.022-0.073,0.033c-0.047,0.021-0.094,0.043-0.141,0.065c-0.029,0.013-0.057,0.026-0.086,0.04
	c-0.043,0.02-0.086,0.04-0.128,0.061c-0.032,0.015-0.065,0.031-0.097,0.046c-0.04,0.019-0.079,0.038-0.119,0.058
	c-0.035,0.017-0.07,0.034-0.105,0.051c-0.038,0.019-0.076,0.037-0.113,0.056c-0.036,0.018-0.073,0.036-0.109,0.054
	c-0.049,0.025-0.098,0.05-0.147,0.075c-0.024,0.012-0.048,0.024-0.071,0.036c-0.063,0.032-0.126,0.065-0.189,0.098
	c-0.01,0.005-0.021,0.01-0.031,0.016c-0.051,0.027-0.102,0.054-0.153,0.081c-0.024,0.013-0.048,0.025-0.072,0.038
	c-0.033,0.018-0.066,0.036-0.098,0.053c-0.042,0.022-0.083,0.045-0.124,0.068c-0.041,0.022-0.081,0.045-0.122,0.068
	c-0.031,0.017-0.061,0.034-0.092,0.051c-0.064,0.036-0.129,0.073-0.193,0.109c-0.008,0.005-0.017,0.01-0.025,0.014
	c-0.059,0.034-0.117,0.068-0.176,0.102c-0.014,0.008-0.029,0.017-0.043,0.025c-0.049,0.029-0.098,0.058-0.147,0.087
	c-0.024,0.014-0.047,0.028-0.071,0.042c-0.042,0.025-0.084,0.051-0.125,0.076c-0.03,0.018-0.06,0.037-0.091,0.055
	c-0.018,0.011-0.036,0.022-0.054,0.033c-0.197,0.121-0.392,0.245-0.587,0.371c-0.142,0.092-0.283,0.186-0.424,0.281
	c-4.621,3.131-9.643,5.441-14.855,6.933c-0.007,0.002-0.014,0.004-0.021,0.006c-0.286,0.082-0.573,0.161-0.861,0.238
	c-0.05,0.013-0.1,0.027-0.15,0.04c-0.251,0.066-0.503,0.131-0.755,0.193c-0.259,0.064-0.518,0.126-0.777,0.187
	c-0.484,0.113-0.97,0.218-1.456,0.317c-13.735,2.785-28.392,0.065-40.307-8.13c-0.139-0.096-0.278-0.192-0.417-0.29
	c-6.672-4.686-15.175-5.634-22.588-2.843c-0.129,0.048-0.257,0.098-0.385,0.148c-0.02,0.008-0.04,0.016-0.06,0.024
	c-0.121,0.048-0.242,0.098-0.363,0.148c-0.026,0.011-0.052,0.022-0.079,0.033c-1.563,0.66-3.072,1.49-4.497,2.49
	c-0.084,0.059-0.168,0.117-0.252,0.175c-0.039,0.027-0.078,0.054-0.117,0.081c-0.087,0.06-0.174,0.12-0.261,0.179
	c-0.047,0.032-0.094,0.064-0.142,0.096c-0.088,0.06-0.177,0.119-0.265,0.178c-0.032,0.021-0.063,0.042-0.095,0.063
	c-0.177,0.118-0.354,0.234-0.532,0.349c-0.039,0.026-0.079,0.051-0.118,0.077c-0.091,0.058-0.181,0.116-0.272,0.174
	c-0.042,0.027-0.084,0.053-0.126,0.08c-0.095,0.06-0.191,0.12-0.287,0.18c-0.015,0.01-0.03,0.019-0.045,0.028
	c-0.217,0.135-0.435,0.268-0.654,0.4c-0.011,0.007-0.022,0.013-0.032,0.02c-0.109,0.065-0.218,0.13-0.327,0.195
	c-0.02,0.012-0.04,0.023-0.059,0.035c-14.245,8.387-31.525,9.576-47.035,3.057c-3.717-1.562-7.189-3.507-10.377-5.784
	c-1.345-0.972-2.654-2.015-3.924-3.127c-0.149-0.13-0.303-0.254-0.46-0.372c-6.657-5.923-11.706-13.456-14.644-21.966h240.002
	c-0.003,0.005-0.006,0.01-0.01,0.015c-0.047,0.071-0.093,0.142-0.138,0.213c-0.007,0.011-0.014,0.023-0.021,0.034
	c-0.046,0.073-0.091,0.146-0.135,0.219c-0.001,0.001-0.001,0.002-0.002,0.004c-0.046,0.076-0.091,0.152-0.135,0.229
	c-0.006,0.01-0.012,0.021-0.018,0.031c-0.044,0.076-0.086,0.152-0.128,0.229c-0.003,0.006-0.007,0.012-0.01,0.018
	c-0.042,0.078-0.084,0.156-0.125,0.234c-0.001,0.002-0.003,0.005-0.004,0.007c-0.042,0.08-0.082,0.16-0.122,0.241
	c-0.004,0.008-0.008,0.016-0.011,0.023c-0.081,0.164-0.158,0.33-0.233,0.497c-0.001,0.003-0.003,0.007-0.005,0.01
	c-0.037,0.084-0.074,0.169-0.109,0.254c-0.001,0.002-0.002,0.005-0.003,0.008c-0.072,0.173-0.141,0.348-0.206,0.524
	c0,0.001-0.001,0.002-0.001,0.003c-0.689,1.868-0.965,3.886-0.777,5.905l2.318,24.88c-1.555,0.427-3.122,0.779-4.698,1.058
	C282.979,314.252,282.972,314.254,282.966,314.255z M38.393,333.774c0-9.628,7.322-17.578,16.69-18.573
	c1.085,0.862,2.2,1.693,3.342,2.49c20.834,14.718,48.05,16.437,70.491,4.55c0.006-0.003,0.013-0.007,0.019-0.01
	c0.17-0.09,0.34-0.182,0.51-0.273c0.026-0.014,0.052-0.028,0.078-0.042c0.158-0.086,0.316-0.173,0.473-0.26
	c0.038-0.021,0.076-0.042,0.114-0.063c0.148-0.082,0.296-0.166,0.444-0.249c0.048-0.027,0.096-0.054,0.143-0.081
	c0.144-0.082,0.287-0.165,0.431-0.247c0.048-0.028,0.097-0.056,0.145-0.084c0.145-0.084,0.29-0.169,0.434-0.255
	c0.045-0.026,0.089-0.053,0.134-0.079c0.148-0.088,0.296-0.177,0.443-0.266c0.041-0.025,0.082-0.049,0.122-0.074
	c0.148-0.09,0.296-0.181,0.444-0.272c0.041-0.025,0.082-0.051,0.123-0.077c0.151-0.094,0.303-0.188,0.453-0.284
	c0.029-0.018,0.058-0.037,0.087-0.055c0.16-0.102,0.32-0.203,0.479-0.306c0.021-0.014,0.042-0.028,0.063-0.041
	c0.721-0.467,1.435-0.948,2.143-1.445c3.157-2.218,7.207-2.288,10.421-0.209c0.104,0.067,0.206,0.136,0.308,0.208
	c0.534,0.375,1.073,0.741,1.615,1.099c0.543,0.358,1.09,0.707,1.64,1.047c0.184,0.114,0.368,0.226,0.552,0.338
	c0.553,0.335,1.111,0.661,1.672,0.978s1.126,0.626,1.694,0.926c9.853,5.202,20.763,7.803,31.675,7.796
	c13.01-0.01,26.022-3.729,37.244-11.174c0.181-0.12,0.362-0.241,0.542-0.363c3.842-2.603,8.73-2.644,12.451-0.107
	c0.134,0.091,0.268,0.182,0.403,0.272c0.047,0.032,0.095,0.063,0.142,0.095c0.086,0.058,0.173,0.115,0.259,0.172
	c0.055,0.036,0.111,0.073,0.166,0.109c0.084,0.055,0.169,0.111,0.253,0.166c0.052,0.034,0.105,0.068,0.157,0.102
	c0.084,0.054,0.168,0.108,0.253,0.163c0.055,0.035,0.109,0.07,0.164,0.105c0.096,0.061,0.192,0.122,0.288,0.182
	c0.039,0.024,0.078,0.049,0.117,0.073c0.139,0.087,0.277,0.173,0.417,0.259c0.012,0.008,0.025,0.015,0.037,0.023
	c0.128,0.079,0.256,0.157,0.385,0.235c0.032,0.02,0.065,0.039,0.097,0.059c0.107,0.065,0.215,0.129,0.322,0.194
	c0.042,0.025,0.084,0.05,0.125,0.074c0.1,0.06,0.2,0.119,0.3,0.177c0.043,0.025,0.085,0.05,0.128,0.075
	c0.103,0.06,0.205,0.119,0.308,0.179c0.04,0.023,0.08,0.046,0.121,0.069c0.127,0.073,0.255,0.146,0.383,0.218
	c0.011,0.006,0.023,0.013,0.034,0.019c0.148,0.084,0.297,0.167,0.446,0.25c0.002,0.001,0.004,0.002,0.006,0.003
	c0.141,0.078,0.282,0.156,0.423,0.232c0.029,0.016,0.058,0.031,0.088,0.048c0.114,0.062,0.228,0.124,0.342,0.185
	c0.036,0.02,0.072,0.039,0.109,0.058c0.115,0.061,0.229,0.122,0.344,0.182l0.088,0.046c0.131,0.069,0.262,0.137,0.393,0.204
	c0.013,0.007,0.026,0.013,0.039,0.02c0.451,0.233,0.905,0.46,1.36,0.681c0.01,0.005,0.021,0.01,0.032,0.015
	c0.137,0.067,0.275,0.133,0.413,0.199c0.02,0.009,0.039,0.019,0.059,0.028c0.141,0.067,0.283,0.134,0.425,0.201
	c0.005,0.002,0.009,0.004,0.014,0.007c12.086,5.657,25.53,7.581,38.615,5.579c0.01-0.001,0.02-0.003,0.03-0.004
	c0.145-0.022,0.29-0.045,0.434-0.068c0.038-0.006,0.076-0.012,0.114-0.018c0.117-0.019,0.234-0.038,0.35-0.058
	c0.049-0.008,0.098-0.016,0.147-0.025c0.108-0.018,0.216-0.037,0.324-0.056c0.054-0.01,0.109-0.019,0.163-0.029
	c0.107-0.019,0.213-0.038,0.319-0.058c0.062-0.011,0.123-0.022,0.185-0.034c0.135-0.025,0.27-0.05,0.405-0.076
	c0.106-0.02,0.212-0.041,0.318-0.062c0.041-0.008,0.082-0.016,0.124-0.024c0.114-0.023,0.228-0.046,0.342-0.069
	c0.032-0.007,0.065-0.013,0.097-0.02c0.124-0.026,0.249-0.052,0.373-0.078c0.014-0.003,0.027-0.006,0.041-0.009
	c0.418-0.089,0.836-0.181,1.253-0.278l1.869,20.056c0.009,0.102,0.02,0.203,0.032,0.303c0.003,0.028,0.007,0.056,0.01,0.084
	c0.009,0.072,0.018,0.144,0.028,0.215c0.005,0.035,0.01,0.07,0.015,0.105c0.01,0.066,0.02,0.131,0.03,0.197
	c0.006,0.035,0.011,0.069,0.017,0.104c0.012,0.073,0.025,0.146,0.039,0.218c0.005,0.024,0.009,0.049,0.013,0.074
	c0.037,0.197,0.079,0.392,0.125,0.586c0.007,0.027,0.013,0.055,0.02,0.082c0.017,0.07,0.034,0.139,0.052,0.209
	c0.008,0.03,0.016,0.061,0.024,0.091c0.018,0.067,0.037,0.135,0.056,0.202c0.008,0.029,0.016,0.057,0.024,0.086
	c0.021,0.074,0.044,0.147,0.066,0.22c0.007,0.021,0.013,0.042,0.019,0.063c0.03,0.094,0.06,0.188,0.092,0.281
	c0.003,0.008,0.006,0.016,0.008,0.024c0.028,0.083,0.058,0.166,0.088,0.249c0.011,0.031,0.023,0.061,0.034,0.091
	c0.022,0.059,0.044,0.119,0.067,0.178c0.014,0.036,0.028,0.072,0.042,0.108c0.022,0.054,0.044,0.109,0.066,0.163
	c0.015,0.035,0.029,0.071,0.044,0.106c0.006,0.015,0.012,0.029,0.018,0.044H57.071C46.772,352.45,38.393,344.071,38.393,333.774z
	 M174.494,408.433l-47.168-40.982h116.756l-47.168,40.982C190.839,413.713,180.571,413.714,174.494,408.433z M15.001,386.52v-11.259
	c0-4.307,3.503-7.81,7.81-7.81h81.642l54.237,47.124H43.056C27.586,414.575,15.001,401.99,15.001,386.52z M212.718,414.575
	l54.237-47.124h34.254l0,0l4.017,47.124H212.718z M308.265,273.61L308.265,273.61C308.264,273.597,308.266,273.622,308.265,273.61
	l-5.923-69.474h41.762v10.045c0,13.008,10.584,23.59,23.591,23.59h61.69c13.008,0,23.59-10.583,23.59-23.59v-10.045h41.762
	l-5.922,69.474H308.265z"/>
<g>
</g>
<g>
</g>
<g>
</g>
<g>
</g>
<g>
</g>
<g>
</g>
<g>
</g>
<g>
</g>
<g>
</g>
<g>
</g>
<g>
</g>
<g>
</g>
<g>
</g>
<g>
</g>
<g>
</g>
</svg>
