<svg height="512pt" viewBox="-102 0 511 512" width="512pt" xmlns="http://www.w3.org/2000/svg"><path d="m290.769531 162.539062h-274.398437c0-75.777343 61.429687-137.199218 137.199218-137.199218 33.78125 0 64.710938 12.210937 88.621094 32.449218 6.941406 5.882813 13.28125 12.441407 18.929688 19.5625 4.839844 6.089844 9.160156 12.609376 12.917968 19.476563 10.671876 19.511719 16.730469 41.902344 16.730469 65.710937zm0 0" fill="#76ffd9"/><path d="m114.0625 13.5v149.039062h-34.699219v-149.039062c0-3.3125 2.6875-6 6-6h22.699219c3.3125 0 6 2.6875 6 6zm0 0" fill="#fff"/><path d="m114.0625 31.109375v131.429687h-34.699219v-115.425781c10.644531-6.863281 22.308594-12.28125 34.699219-16.003906zm0 0" fill="#fff"/><path d="m79.363281 147.894531h34.699219v14.644531h-34.699219zm0 0" fill="#d9dfe9"/><path d="m277.992188 201.589844-2.179688 17.160156-35.242188 277.339844c-.609374 4.800781-4.6875 8.410156-9.539062 8.410156h-154.921875c-4.847656 0-8.929687-3.609375-9.539063-8.410156l-35.238281-277.339844-2.179687-17.160156zm0 0" fill="#fff"/><path d="m277.992188 201.589844-2.179688 17.160156h-244.480469l-2.179687-17.160156zm0 0" fill="#d9dfe9"/><path d="m269.3125 269.855469-21.671875 170.597656-7.066406 55.640625c-.609375 4.800781-4.695313 8.40625-9.546875 8.40625h-154.914063c-4.847656 0-8.9375-3.605469-9.542969-8.40625l-7.066406-55.640625-21.675781-170.597656zm0 0" fill="#ffc843"/><path d="m247.640625 440.453125-7.070313 55.640625c-.605468 4.800781-4.691406 8.40625-9.542968 8.40625h-154.914063c-4.847656 0-8.9375-3.605469-9.542969-8.40625l-7.066406-55.640625zm0 0" fill="#76ffd9"/><path d="m217.667969 317.953125c0 35.402344-28.695313 64.097656-64.097657 64.097656-35.398437 0-64.097656-28.695312-64.097656-64.097656 0-35.398437 28.699219-64.097656 64.097656-64.097656 35.402344 0 64.097657 28.699219 64.097657 64.097656zm0 0" fill="#fff"/><path d="m289.140625 204.585938h-271.140625c-5.523438 0-10-4.476563-10-10v-23.097657c0-5.523437 4.476562-10 10-10h271.140625c5.523437 0 10 4.476563 10 10v23.097657c0 5.523437-4.476563 10-10 10zm0 0" fill="#fff"/><g fill="#474d54"><path d="m131.996094 297.722656c-15.597656 15.597656-18.339844 37.292969-6.242188 49.390625 4.855469 4.855469 11.644532 7.457031 19.152344 7.457031 1.78125 0 3.601562-.144531 5.441406-.441406 8.871094-1.429687 17.679688-6.136718 24.796875-13.253906 15.597657-15.597656 18.339844-37.292969 6.242188-49.390625-12.101563-12.097656-33.792969-9.359375-49.390625 6.238281zm10.605468 10.609375c4.835938-4.835937 10.878907-8.136719 16.574219-9.050781.859375-.140625 1.941407-.257812 3.132813-.257812.292968 0 .597656.011718.90625.027343l-29.921875 29.921875c-.363281-6.332031 2.976562-14.308594 9.308593-20.640625zm21.9375 21.9375c-6.332031 6.332031-14.308593 9.671875-20.640624 9.308594l29.953124-29.949219c.359376 6.332032-2.980468 14.304688-9.3125 20.640625zm0 0"/><path d="m298.136719 156.503906c-1.648438-39.902344-19.925781-77.652344-50.320313-103.761718-3.140625-2.699219-7.875-2.34375-10.574218.800781-2.699219 3.140625-2.339844 7.878906.800781 10.574219 26.449219 22.722656 42.664062 55.269531 44.941406 89.871093h-161.425781v-117.21875c10.238281-2.570312 20.960937-3.933593 32.011718-3.933593 19.855469 0 38.914063 4.371093 56.644532 12.992187 3.722656 1.8125 8.210937.261719 10.023437-3.464844 1.8125-3.726562.257813-8.214843-3.464843-10.023437-19.789063-9.625-41.054688-14.503906-63.203126-14.503906-10.890624 0-21.613281 1.210937-32.011718 3.554687v-7.890625c0-7.445312-6.054688-13.5-13.5-13.5h-22.691406c-7.445313 0-13.5 6.054688-13.5 13.5v29.578125c-6.648438 4.5625-12.953126 9.703125-18.855469 15.40625-26.875 25.980469-42.484375 60.769531-44.011719 98.023437-5.082031 3.066407-8.5 8.625-8.5 14.980469v23.097657c0 9.648437 7.851562 17.5 17.5 17.5h4.921875l13.574219 106.8125c.480468 3.789062 3.707031 6.558593 7.429687 6.558593.316407 0 .632813-.019531.957031-.0625 4.105469-.523437 7.015626-4.277343 6.492188-8.382812l-13.332031-104.925781h164.265625c4.144531 0 7.5-3.359376 7.5-7.5 0-4.140626-3.355469-7.5-7.5-7.5h-184.308594c-1.378906 0-2.5-1.121094-2.5-2.5v-23.097657c0-1.378906 1.121094-2.5 2.5-2.5h271.144531c1.378907 0 2.5 1.121094 2.5 2.5v23.097657c0 1.378906-1.121093 2.5-2.5 2.5h-52.3125c-4.140625 0-7.5 3.359374-7.5 7.5 0 4.140624 3.359375 7.5 7.5 7.5h32.265625l-35.964844 283.0625c-.136718 1.054687-1.039062 1.851562-2.101562 1.851562h-154.921875c-1.0625 0-1.964844-.792969-2.097656-1.851562l-18.175781-143.050782c-.523438-4.109375-4.277344-7.019531-8.386719-6.492187-4.109375.519531-7.015625 4.273437-6.496094 8.382812l18.175781 143.050781c1.085938 8.527344 8.386719 14.960938 16.980469 14.960938h154.921875c8.597656 0 15.898438-6.433594 16.980469-14.960938l36.207031-284.953124h4.921875c9.648437 0 17.5-7.851563 17.5-17.5v-23.097657c0-6.359375-3.417969-11.917969-8.503906-14.984375zm-226.269531-2.515625h-47.71875c2.421874-37.527343 20.488281-70.414062 47.71875-92.417969zm34.691406 0h-19.691406v-102.878906c6.238281-3.722656 12.820312-6.9375 19.691406-9.585937zm0-128.351562c-6.761719 2.316406-13.34375 5.128906-19.691406 8.433593v-19.070312h19.691406zm0 0"/></g></svg>