<svg viewBox="0 0 512 512" xmlns="http://www.w3.org/2000/svg"><path d="m504.5 256c0 137.242188-111.257812 248.5-248.5 248.5s-248.5-111.257812-248.5-248.5 111.257812-248.5 248.5-248.5 248.5 111.257812 248.5 248.5zm0 0" fill="#fff"/><path d="m256 7.5c-5.039062 0-10.035156.167969-15 .464844 130.257812 7.757812 233.5 115.832031 233.5 248.035156s-103.242188 240.277344-233.5 248.035156c4.964844.296875 9.960938.464844 15 .464844 137.242188 0 248.5-111.257812 248.5-248.5s-111.257812-248.5-248.5-248.5zm0 0" fill="#e2ebf9"/><path d="m398.65625 256c0 78.789062-63.867188 142.65625-142.65625 142.65625s-142.65625-63.867188-142.65625-142.65625 63.867188-142.65625 142.65625-142.65625 142.65625 63.867188 142.65625 142.65625zm0 0" fill="#c1c8d2"/><path d="m256 113.34375c-5.066406 0-10.070312.269531-15 .785156 71.734375 7.496094 127.65625 68.148438 127.65625 141.871094s-55.921875 134.378906-127.65625 141.875c4.929688.515625 9.933594.78125 15 .78125 78.789062 0 142.65625-63.867188 142.65625-142.65625 0-78.785156-63.867188-142.65625-142.65625-142.65625zm0 0" fill="#aab2b9"/><path d="m193.945312 428.941406c-8.28125 0-15-6.714844-15-15v-224.5h30v224.5c0 8.285156-6.714843 15-15 15zm0 0" fill="#e2ebf9"/><path d="m320.054688 428.941406c-8.285157 0-15-6.714844-15-15v-224.5h30v224.5c0 8.285156-6.71875 15-15 15zm0 0" fill="#e2ebf9"/><path d="m178.945312 273.8125v140.128906c0 8.285156 6.71875 15 15 15 8.285157 0 15-6.714844 15-15v-140.128906zm0 0" fill="#5de1c0"/><path d="m305.054688 273.8125v140.128906c0 8.285156 6.714843 15 15 15 8.28125 0 15-6.714844 15-15v-140.128906zm0 0" fill="#5de1c0"/><path d="m245.945312 161.316406c0 40.042969-23.28125 58.511719-52 58.511719s-52-18.46875-52-58.511719c0-40.046875 23.28125-86.503906 52-86.503906s52 46.457031 52 86.503906zm0 0" fill="#e2ebf9"/><path d="m192.945312 74.8125c-5.214843 0-10.25 1.539062-15 4.285156 21.40625 12.382813 37 49.445313 37 82.21875 0 32.769532-15.59375 51.082032-37 56.65625 4.753907 1.238282 9.785157 1.855469 15 1.855469 28.71875 0 52-18.46875 52-58.511719 0-40.046875-23.28125-86.503906-52-86.503906zm0 0" fill="#c1c8d2"/><path d="m359.992188 67.691406c-5.558594 0-10.0625 3.890625-10.0625 8.6875v56.144532c0 4.722656-4.4375 8.550781-9.90625 8.550781-5.472657 0-9.910157-3.832031-9.910157-8.550781v-56.144532c0-4.796875-4.503906-8.6875-10.058593-8.6875-5.558594 0-10.0625 3.890625-10.0625 8.6875v56.144532c0 4.722656-4.4375 8.550781-9.90625 8.550781-5.472657 0-9.910157-3.832031-9.910157-8.550781v-56.144532c0-4.796875-4.503906-8.6875-10.0625-8.6875-5.554687 0-10.058593 3.890625-10.058593 8.6875v100.292969c0 23.835937 22.382812 43.15625 50 43.15625 27.613281 0 50-19.320313 50-43.15625v-100.292969c0-4.796875-4.507813-8.6875-10.0625-8.6875zm0 0" fill="#e2ebf9"/><path d="m358.992188 67.691406c-5.558594 0-10.0625 3.890625-10.0625 8.6875v56.144532c0 4.710937-4.417969 8.535156-9.875 8.546874v35.601563c0 19.324219-14.714844 35.679687-35 41.179687 4.734374 1.285157 9.769531 1.976563 15 1.976563 27.613281 0 50-19.320313 50-43.15625v-100.292969c0-4.796875-4.507813-8.6875-10.0625-8.6875zm0 0" fill="#c1c8d2"/><g fill="#434c54"><path d="m425.875 426.949219c-45.457031 45.171875-105.785156 70.050781-169.875 70.050781-132.886719 0-241-108.113281-241-241 0-52.148438 16.382812-101.777344 47.375-143.519531 2.46875-3.328125 1.777344-8.023438-1.550781-10.496094-3.324219-2.46875-8.023438-1.773437-10.492188 1.550781-32.925781 44.351563-50.332031 97.070313-50.332031 152.464844 0 68.378906 26.628906 132.667969 74.980469 181.019531 48.351562 48.351563 112.640625 74.980469 181.019531 74.980469 68.078125 0 132.164062-26.425781 180.449219-74.414062 2.9375-2.917969 2.953125-7.667969.03125-10.605469-2.917969-2.9375-7.667969-2.953125-10.605469-.03125zm0 0"/><path d="m437.019531 74.980469c-48.351562-48.351563-112.640625-74.980469-181.019531-74.980469-35.414062 0-69.707031 7.097656-101.929688 21.097656-31.117187 13.519532-58.878906 32.824219-82.511718 57.371094-2.871094 2.980469-2.78125 7.730469.203125 10.601562 2.984375 2.875 7.730469 2.785157 10.601562-.199218 45.867188-47.636719 107.53125-73.871094 173.636719-73.871094 132.886719 0 241 108.113281 241 241 0 54.054688-17.484375 105.132812-50.558594 147.714844-2.542968 3.269531-1.949218 7.980468 1.320313 10.523437 1.367187 1.0625 2.988281 1.578125 4.597656 1.578125 2.234375 0 4.449219-1 5.925781-2.902344 35.140625-45.234374 53.714844-99.496093 53.714844-156.914062 0-68.378906-26.628906-132.667969-74.980469-181.019531zm0 0"/><path d="m193.949219 436.441406c12.40625 0 22.5-10.09375 22.5-22.5v-190.4375c7.492187-2.773437 14.109375-7.027344 19.628906-12.671875 11.363281-11.617187 17.367187-28.742187 17.367187-49.515625 0-20.878906-6.058593-44.042968-16.203124-61.964844-11.699219-20.660156-27.074219-32.039062-43.296876-32.039062-16.222656 0-31.597656 11.378906-43.296874 32.039062-10.144532 17.921876-16.203126 41.085938-16.203126 61.964844 0 20.773438 6.007813 37.898438 17.367188 49.515625 5.523438 5.648438 12.144531 9.898438 19.636719 12.671875v190.4375c0 12.40625 10.09375 22.5 22.5 22.5zm7.5-22.5c0 4.132813-3.363281 7.5-7.5 7.5s-7.5-3.367187-7.5-7.5v-186.996094c2.441406.253907 4.941406.382813 7.496093.382813 2.558594 0 5.0625-.128906 7.503907-.382813zm-52.003907-252.625c0-39.132812 22.460938-79.003906 44.5-79.003906 22.042969 0 44.5 39.871094 44.5 79.003906 0 26.398438-11.363281 44.007813-31.039062 49.324219-.242188.050781-.480469.113281-.71875.1875-3.929688.992187-8.183594 1.5-12.742188 1.5-4.542968 0-8.789062-.507813-12.710937-1.492187-.253906-.082032-.511719-.152344-.773437-.203126-19.660157-5.324218-31.015626-22.929687-31.015626-49.316406zm0 0"/><path d="m280.113281 60.191406c-9.683593 0-17.558593 7.261719-17.558593 16.1875v100.292969c0 20.902344 14.441406 38.886719 34.996093 46.617187v190.652344c0 12.40625 10.09375 22.5 22.5 22.5s22.5-10.09375 22.5-22.5v-190.652344c20.558594-7.726562 35.003907-25.714843 35.003907-46.617187v-32.824219c0-4.140625-3.359376-7.5-7.5-7.5-4.144532 0-7.5 3.359375-7.5 7.5v32.824219c0 15.78125-12.285157 29.203125-29.253907 33.882813-.144531.035156-.285156.074218-.425781.117187-4.046875 1.074219-8.355469 1.65625-12.820312 1.65625-4.488282 0-8.816407-.585937-12.878907-1.671875-.109375-.035156-.21875-.0625-.328125-.089844-16.992187-4.671875-29.292968-18.101562-29.292968-33.894531v-100.292969c0-.226562.851562-1.1875 2.558593-1.1875 1.710938 0 2.5625.960938 2.5625 1.1875v56.144532c0 8.847656 7.808594 16.050781 17.410157 16.050781 9.597656 0 17.40625-7.203125 17.40625-16.050781v-56.144532c0-.226562.851562-1.1875 2.5625-1.1875 1.707031 0 2.558593.960938 2.558593 1.1875v56.144532c0 8.847656 7.8125 16.050781 17.410157 16.050781 9.597656 0 17.40625-7.203125 17.40625-16.050781v-56.144532c0-.226562.851562-1.1875 2.5625-1.1875 1.707031 0 2.5625.960938 2.5625 1.1875v35.46875c0 4.144532 3.355468 7.5 7.5 7.5 4.140624 0 7.5-3.355468 7.5-7.5v-35.46875c0-8.925781-7.878907-16.1875-17.5625-16.1875-9.683594 0-17.5625 7.261719-17.5625 16.1875v56.136719c-.050782.214844-.820313 1.058594-2.40625 1.058594-1.589844 0-2.355469-.84375-2.410157-1.050781v-56.144532c0-8.925781-7.875-16.1875-17.558593-16.1875-9.6875 0-17.5625 7.261719-17.5625 16.1875v56.136719c-.054688.214844-.820313 1.058594-2.40625 1.058594-1.589844 0-2.355469-.84375-2.410157-1.050781v-56.144532c0-8.925781-7.878906-16.1875-17.5625-16.1875zm39.941407 167.136719c2.539062 0 5.039062-.144531 7.496093-.425781v187.039062c0 4.132813-3.363281 7.5-7.5 7.5s-7.5-3.367187-7.5-7.5v-187.042968c2.457031.285156 4.960938.429687 7.503907.429687zm0 0"/></g></svg>