<?xml version="1.0" encoding="iso-8859-1"?>
<!-- Generator: Adobe Illustrator 19.0.0, SVG Export Plug-In . SVG Version: 6.00 Build 0)  -->
<svg version="1.1" id="Capa_1" xmlns="http://www.w3.org/2000/svg" xmlns:xlink="http://www.w3.org/1999/xlink" x="0px" y="0px"
	 viewBox="0 0 511.999 511.999" style="enable-background:new 0 0 511.999 511.999;" xml:space="preserve">
<rect x="73.144" y="195.892" style="fill:#E4EAF8;" width="366.192" height="197.472"/>
<rect x="73.144" y="195.892" style="fill:#C2C7D0;" width="27.502" height="197.472"/>
<rect x="307.339" y="295.858" style="fill:#707487;" width="26.022" height="37.172"/>
<g>
	<rect x="307.339" y="295.858" style="fill:#FFFFFF;" width="19.614" height="37.172"/>
	<path style="fill:#FFFFFF;" d="M398.456,303.165h-27.352c-4.285,0-7.759,3.474-7.759,7.758v21.787h43.011v-21.647
		C406.356,306.703,402.818,303.165,398.456,303.165z"/>
</g>
<path style="fill:#E4EAF8;" d="M391.106,303.165h-20.001c-4.285,0-7.759,3.474-7.759,7.758v21.787h20.001v-21.787
	C383.346,306.64,386.82,303.165,391.106,303.165z"/>
<path style="fill:#ABFFDB;" d="M264.36,11.879c-3.829-5.838-12.367-5.838-16.196,0C186.8,105.445,49.724,154.352,49.724,154.352
	h206.537h206.537C462.8,154.352,325.725,105.445,264.36,11.879z"/>
<g>
	<path style="fill:#92E0C0;" d="M267.974,17.195c-1.228-1.757-2.439-3.526-3.613-5.316c-3.829-5.838-12.367-5.838-16.196,0
		c-61.364,93.567-198.44,142.474-198.44,142.474h23.422C73.146,154.352,205.018,107.294,267.974,17.195z"/>
	<path style="fill:#92E0C0;" d="M393.147,176.778v27.13c0,18.9,15.321,34.221,34.221,34.221l0,0c18.9,0,34.221-15.321,34.221-34.221
		v-27.13L393.147,176.778L393.147,176.778z"/>
</g>
<path style="fill:#FFC850;" d="M324.705,176.778v27.13c0,18.9,15.321,34.221,34.221,34.221l0,0c18.9,0,34.221-15.321,34.221-34.221
	v-27.13L324.705,176.778L324.705,176.778z"/>
<path style="fill:#92E0C0;" d="M256.263,176.778v27.13c0,18.9,15.321,34.221,34.221,34.221l0,0c18.9,0,34.221-15.321,34.221-34.221
	v-27.13L256.263,176.778L256.263,176.778z"/>
<path style="fill:#FFC850;" d="M187.82,176.778v27.13c0,18.9,15.321,34.221,34.221,34.221l0,0c18.9,0,34.221-15.321,34.221-34.221
	v-27.13L187.82,176.778L187.82,176.778z"/>
<path style="fill:#92E0C0;" d="M119.378,176.778v27.13c0,18.9,15.321,34.221,34.221,34.221l0,0c18.9,0,34.221-15.321,34.221-34.221
	v-27.13L119.378,176.778L119.378,176.778z"/>
<path style="fill:#FFC850;" d="M50.936,176.778v27.13c0,18.9,15.321,34.221,34.221,34.221l0,0c18.9,0,34.221-15.321,34.221-34.221
	v-27.13L50.936,176.778L50.936,176.778z"/>
<path style="fill:#6DC296;" d="M413.148,203.907v-27.13h-20.001v27.13c0,18.9,15.321,34.221,34.221,34.221
	c3.48,0,6.836-0.523,10.001-1.489C423.349,232.362,413.148,219.327,413.148,203.907z"/>
<path style="fill:#F9B428;" d="M344.706,203.907v-27.13h-20.001v27.13c0,18.9,15.321,34.221,34.221,34.221
	c3.48,0,6.836-0.523,10.001-1.489C354.906,232.362,344.706,219.327,344.706,203.907z"/>
<path style="fill:#6DC296;" d="M276.264,203.907v-27.13h-20.001v27.13c0,18.9,15.321,34.221,34.221,34.221
	c3.48,0,6.836-0.523,10.001-1.489C286.464,232.362,276.264,219.327,276.264,203.907z"/>
<path style="fill:#F9B428;" d="M207.822,203.907v-27.13H187.82v27.13c0,18.9,15.321,34.221,34.221,34.221
	c3.48,0,6.836-0.523,10.001-1.489C218.022,232.362,207.822,219.327,207.822,203.907z"/>
<path style="fill:#6DC296;" d="M139.379,203.907v-27.13h-20.001v27.13c0,18.9,15.321,34.221,34.221,34.221
	c3.479,0,6.836-0.523,10.001-1.489C149.58,232.362,139.379,219.327,139.379,203.907z"/>
<path style="fill:#F9B428;" d="M70.937,203.907v-27.13H50.936v27.13c0,18.9,15.321,34.221,34.221,34.221
	c3.48,0,6.836-0.523,10.001-1.489C81.138,232.362,70.937,219.327,70.937,203.907z"/>
<path style="fill:#6DC296;" d="M462.195,177.778H49.725c-6.69,0-12.114-5.424-12.114-12.114c0-6.689,5.423-12.114,12.114-12.114
	h412.47c6.69,0,12.114,5.424,12.114,12.114C474.309,172.353,468.885,177.778,462.195,177.778z"/>
<path style="fill:#5FA77E;" d="M462.195,163.664H49.725c-4.054,0-7.633-1.999-9.833-5.056c-1.43,1.988-2.281,4.421-2.281,7.056
	c0,6.689,5.423,12.114,12.114,12.114h412.47c6.69,0,12.114-5.424,12.114-12.114c0-2.636-0.851-5.068-2.281-7.056
	C469.828,161.666,466.249,163.664,462.195,163.664z"/>
<path style="fill:#FEA82F;" d="M239.153,266.49H136.487c-4.23,0-7.69,3.461-7.69,7.69v38.78c0,4.23,3.46,7.69,7.69,7.69h102.665
	c4.229,0,7.69-3.46,7.69-7.69v-38.78C246.844,269.951,243.383,266.49,239.153,266.49z"/>
<path style="fill:#FF8031;" d="M148.798,312.961v-38.78c0-4.229,3.46-7.69,7.69-7.69h-20.001c-4.23,0-7.69,3.461-7.69,7.69v38.78
	c0,4.23,3.46,7.69,7.69,7.69h20.001C152.259,320.651,148.798,317.191,148.798,312.961z"/>
<path style="fill:#6DC296;" d="M406.356,325.712H296.44c-4.657,0-8.434,3.776-8.434,8.434v49.789h127.063v-49.508
	C415.07,329.613,411.168,325.712,406.356,325.712z"/>
<path style="fill:#5FA77E;" d="M316.869,325.712H296.44c-4.657,0-8.434,3.776-8.434,8.434v49.789h20.429v-49.789
	C308.436,329.487,312.212,325.712,316.869,325.712z"/>
<path style="fill:#FF9052;" d="M332.398,266.49h-24.11c-5.171,0-9.404,4.231-9.404,9.404v17.869c0,5.171,4.231,9.403,9.404,9.403
	h24.11c5.171,0,9.404-4.231,9.404-9.403v-17.869C341.801,270.721,337.569,266.49,332.398,266.49z"/>
<path style="fill:#FF8031;" d="M318.885,293.763v-17.869c0-5.171,4.231-9.404,9.404-9.404h-20.001c-5.171,0-9.404,4.231-9.404,9.404
	v17.869c0,5.172,4.231,9.403,9.404,9.403h20.001C323.118,303.165,318.885,298.934,318.885,293.763z"/>
<rect x="65.644" y="381.933" style="fill:#92E0C0;" width="95.296" height="122.567"/>
<rect x="65.644" y="381.933" style="fill:#6DC296;" width="15.001" height="122.567"/>
<rect x="160.94" y="381.933" style="fill:#FFC850;" width="97.996" height="122.567"/>
<rect x="160.94" y="381.933" style="fill:#FEA82F;" width="15.426" height="122.567"/>
<rect x="258.936" y="381.933" style="fill:#92E0C0;" width="92.636" height="122.567"/>
<rect x="258.936" y="381.933" style="fill:#6DC296;" width="14.582" height="122.567"/>
<rect x="351.581" y="381.933" style="fill:#FFC850;" width="95.256" height="122.567"/>
<rect x="351.581" y="381.933" style="fill:#FEA82F;" width="14.995" height="122.567"/>
<path style="fill:#474D54;" d="M481.849,165.664c0-10.015-7.55-18.287-17.254-19.458c-10.82-3.999-136.976-52.108-193.933-138.48
	C267.471,2.888,262.104,0,256.303,0c-5.801,0-11.169,2.888-14.359,7.726C185.351,93.545,60.433,141.593,48.221,146.128
	c-10.095,0.792-18.071,9.243-18.071,19.536c0,8.614,5.589,15.932,13.325,18.561v20.682c0,12.709,5.719,24.101,14.711,31.76l0,0
	v260.331h-4.868c-4.143,0-7.5,3.357-7.5,7.5s3.357,7.5,7.5,7.5l0,0h405.365l0,0c4.143,0,7.5-3.357,7.5-7.5s-3.357-7.5-7.5-7.5
	h-4.306v-36.281c0-4.143-3.357-7.5-7.5-7.5s-7.5,3.357-7.5,7.5v36.281H73.187V389.435h366.188l0,0l0,0v36.28
	c0,4.143,3.357,7.5,7.5,7.5s7.5-3.357,7.5-7.5l0,0V236.705c9.017-7.658,14.754-19.068,14.754-31.798v-20.904
	C476.549,181.204,481.849,174.051,481.849,165.664z M454.129,204.908c0,14.733-11.987,26.721-26.721,26.721
	c-14.734,0-26.722-11.987-26.722-26.721v-19.629h53.441v19.629H454.129z M385.686,204.908c0,14.733-11.987,26.721-26.721,26.721
	c-14.734,0-26.721-11.987-26.721-26.721v-19.629h53.441V204.908z M317.245,204.908c0,14.733-11.987,26.721-26.722,26.721
	c-14.733,0-26.721-11.987-26.721-26.721v-19.629h53.441v19.629H317.245z M248.802,204.908c0,14.733-11.987,26.721-26.721,26.721
	c-14.734,0-26.721-11.987-26.721-26.721v-19.629h53.441L248.802,204.908L248.802,204.908z M162.799,258.991v-13.387
	c10.315-2.32,19.193-8.468,25.062-16.872c5.564,7.968,13.833,13.913,23.468,16.485v13.773h-48.53V258.991z M111.918,204.908
	c0,14.733-11.987,26.721-26.721,26.721s-26.722-11.987-26.722-26.721v-19.629h53.441L111.918,204.908L111.918,204.908z
	 M126.919,185.279h53.441v19.629c0,14.733-11.987,26.721-26.722,26.721c-14.733,0-26.721-11.987-26.721-26.721v-19.629H126.919z
	 M462.235,170.278H50.976h-1.211c-2.544,0-4.613-2.069-4.613-4.613c0-2.544,2.069-4.613,4.613-4.613h412.47
	c2.544,0,4.613,2.069,4.613,4.613C466.848,168.209,464.779,170.278,462.235,170.278L462.235,170.278 M129.674,124.123
	c38.981-22.113,92.274-58.825,124.792-108.139c0.564-0.855,1.394-0.983,1.837-0.983s1.272,0.128,1.837,0.983
	c32.519,49.314,85.811,86.025,124.792,108.139c15.794,8.96,30.446,16.268,42.661,21.927H87.013
	C99.228,140.391,113.88,133.082,129.674,124.123z M295.547,374.434v-40.288c0-0.515,0.418-0.934,0.933-0.934h10.895h26.018h29.994
	h43.011c0.669,0,1.214,0.545,1.214,1.214v40.008H295.547z M334.34,293.763c0,1.031-0.871,1.902-1.902,1.902h-24.109
	c-1.031,0-1.903-0.871-1.903-1.902v-17.869c0-1.031,0.872-1.903,1.903-1.903h24.109c1.031,0,1.902,0.872,1.902,1.903V293.763z
	 M314.874,310.666h11.017v7.544h-11.017V310.666z M398.895,318.21h-28.01v-7.286c0-0.143,0.116-0.258,0.259-0.258h27.352
	c0.221,0,0.399,0.179,0.399,0.398V318.21z M439.376,374.434h-16.765v-40.008c0-6.234-3.542-11.65-8.715-14.362v-8.999
	c0-8.492-6.908-15.399-15.4-15.399h-27.352c-8.415,0-15.26,6.845-15.26,15.259v7.286h-14.993v-9.833
	c5.042-2.928,8.449-8.376,8.449-14.615v-17.869c0-9.321-7.582-16.904-16.903-16.904h-24.109c-9.321,0-16.904,7.583-16.904,16.904
	v17.869c0,6.239,3.407,11.687,8.45,14.615v9.833h-3.394c-8.786,0-15.934,7.147-15.934,15.935v40.288H73.187V244.859
	c3.806,1.146,7.836,1.77,12.011,1.77c14.153,0,26.674-7.089,34.221-17.897c6.489,9.294,16.658,15.83,28.38,17.48v12.779h-11.271
	c-8.377,0-15.191,6.813-15.191,15.19v38.779c0,8.377,6.814,15.191,15.191,15.191h33.831c4.143,0,7.5-3.357,7.5-7.5
	s-3.357-7.5-7.5-7.5h-33.831c-0.087,0-0.19-0.104-0.19-0.19v-38.779c0-0.087,0.104-0.189,0.19-0.189h102.665
	c0.087,0,0.19,0.103,0.19,0.189v38.779c0,0.087-0.104,0.19-0.19,0.19h-33.832c-4.143,0-7.5,3.357-7.5,7.5s3.357,7.5,7.5,7.5h33.832
	c8.377,0,15.191-6.814,15.191-15.191v-38.779c0-8.377-6.814-15.19-15.191-15.19h-12.863v-12.576
	c12.392-1.259,23.19-7.969,29.973-17.682c7.547,10.808,20.068,17.897,34.221,17.897s26.675-7.089,34.221-17.897
	c7.547,10.808,20.068,17.897,34.221,17.897c14.153,0,26.674-7.089,34.221-17.897c7.547,10.808,20.069,17.897,34.221,17.897
	c4.158,0,8.173-0.62,11.967-1.757L439.376,374.434L439.376,374.434z"/>
<g>
</g>
<g>
</g>
<g>
</g>
<g>
</g>
<g>
</g>
<g>
</g>
<g>
</g>
<g>
</g>
<g>
</g>
<g>
</g>
<g>
</g>
<g>
</g>
<g>
</g>
<g>
</g>
<g>
</g>
</svg>
