<svg height="512pt" viewBox="-43 0 512 512" width="512pt" xmlns="http://www.w3.org/2000/svg"><path d="m159.128906 494.433594c-.421875 5.675781-5.144531 10.066406-10.84375 10.066406h-126.910156c-5.695312 0-10.417969-4.390625-10.839844-10.066406-1.429687-19.351563-4.101562-64.167969-2.582031-113.308594 1.484375-48.324219 7.011719-100.820312 21.75-137.371094 2.21875-5.523437 4.660156-10.679687 7.324219-15.402344 32.140625-56.964843 29.386718-171.285156 29.386718-171.285156h36.832032s-2.753906 114.320313 29.386718 171.285156c2.664063 4.722657 5.105469 9.878907 7.324219 15.402344 14.738281 36.550782 20.265625 89.046875 21.75 137.371094 1.519531 49.140625-1.152343 93.957031-2.578125 113.308594zm0 0" fill="#76ffd9"/><path d="m159.128906 494.433594c-.421875 5.675781-5.144531 10.066406-10.84375 10.066406h-20.121094c5.695313 0 10.417969-4.390625 10.839844-10.066406 1.425782-19.351563 4.097656-64.167969 2.582032-113.308594-1.488282-48.324219-7.015626-100.820312-21.75-137.371094-2.222657-5.523437-4.664063-10.679687-7.324219-15.402344-32.140625-56.964843-29.386719-171.285156-29.386719-171.285156h20.121094s-2.753906 114.320313 29.386718 171.285156c2.664063 4.722657 5.105469 9.878907 7.324219 15.402344 14.738281 36.550782 20.265625 89.046875 21.753907 137.371094 1.515624 49.140625-1.15625 93.957031-2.582032 113.308594zm0 0" fill="#5de0bf"/><path d="m161.710938 381.125h-28.96875v-42.75h-92.136719v42.75h-32.652344c1.484375-48.324219 7.011719-100.820312 21.75-137.371094h110.253906c14.738281 36.550782 20.265625 89.046875 21.753907 137.371094zm0 0" fill="#ffc843"/><path d="m161.710938 381.125h-20.125c-1.488282-48.324219-7.015626-100.820312-21.75-137.371094h20.121093c14.738281 36.550782 20.265625 89.046875 21.753907 137.371094zm0 0" fill="#f9a83d"/><path d="m59.964844 7.5h49.734375v79.128906h-49.734375zm0 0" fill="#ffc843"/><path d="m246.898438 413.507812c-26.585938 0-48.136719-21.554687-48.136719-48.140624v-124.523438h96.277343v124.523438c0 26.585937-21.550781 48.140624-48.140624 48.140624zm0 0" fill="#fff"/><path d="m246.898438 394.164062c-15.953126 0-28.882813-12.933593-28.882813-28.886718v-82.871094h57.769531v82.871094c0 15.953125-12.933594 28.886718-28.886718 28.886718zm0 0" fill="#ffc843"/><path d="m275.789062 282.402344v82.875c0 15.953125-12.933593 28.886718-28.886718 28.886718-3.035156 0-5.957032-.472656-8.703125-1.335937 11.707031-3.6875 20.1875-14.628906 20.1875-27.550781v-82.875zm0 0" fill="#ffb400"/><path d="m369.585938 413.507812c-26.585938 0-48.140626-21.554687-48.140626-48.140624v-124.523438h96.28125v124.523438c0 26.585937-21.554687 48.140624-48.140624 48.140624zm0 0" fill="#fff"/><path d="m369.585938 394.164062c-15.953126 0-28.886719-12.933593-28.886719-28.886718v-82.871094h57.773437v82.871094c0 15.953125-12.933594 28.886718-28.886718 28.886718zm0 0" fill="#ffc843"/><path d="m398.472656 282.402344v82.875c0 15.953125-12.929687 28.886718-28.882812 28.886718-3.035156 0-5.960938-.472656-8.703125-1.335937 11.703125-3.6875 20.183593-14.628906 20.183593-27.550781v-82.875zm0 0" fill="#ffb400"/><g fill="#434c54"><path d="m169.207031 380.894531c-1.871093-60.820312-9.371093-107.902343-22.289062-139.933593-.011719-.023438-.019531-.046876-.03125-.070313-.011719-.035156-.027344-.070313-.042969-.101563-2.339844-5.804687-4.921875-11.230468-7.679688-16.121093-9.96875-17.671875-17.515624-43.21875-22.429687-75.9375-.613281-4.09375-4.433594-6.917969-8.527344-6.300781-4.097656.613281-6.917969 4.433593-6.304687 8.53125 5.1875 34.53125 13.328125 61.808593 24.199218 81.074218.761719 1.351563 1.503907 2.769532 2.238282 4.21875l6.464844 15c10.632812 28.886719 17.0625 69.988282 19.132812 122.371094l.46875 15c1.027344 44.769531-1.25 84.796875-2.757812 105.25-.132813 1.753906-1.605469 3.125-3.363282 3.125h-126.910156c-1.753906 0-3.230469-1.371094-3.359375-3.121094-.648437-8.761718-1.554687-22.84375-2.203125-40.152344-.15625-4.140624-3.628906-7.332031-7.773438-7.214843-4.140624.15625-7.371093 3.636719-7.214843 7.773437.65625 17.535156 1.574219 31.8125 2.230469 40.703125.710937 9.539063 8.757812 17.011719 18.320312 17.011719h126.910156c9.566406 0 17.613282-7.472656 18.320313-17.015625 1.613281-21.851563 4.09375-65.734375 2.601562-114.089844zm0 0"/><path d="m7.582031 432.53125c.03125 0 .0625 0 .09375-.003906 4.144531-.050782 7.460938-3.449219 7.410157-7.589844-.15625-12.410156-.09375-24.585938.175781-36.3125l.464843-15c2.074219-52.390625 8.5-93.492188 19.128907-122.371094l6.464843-15c.734376-1.449218 1.476563-2.871094 2.238282-4.21875 21.402344-37.941406 27.789062-99.960937 29.648437-137.910156h23.25c.4375 9.007812 1.050781 17.960938 1.851563 26.695312.355468 3.894532 3.625 6.816407 7.457031 6.816407.230469 0 .460937-.007813.695313-.03125 4.125-.375 7.160156-4.027344 6.785156-8.148438-.765625-8.359375-1.359375-16.925781-1.785156-25.546875 3.292968-.792968 5.738281-3.75 5.738281-7.285156v-79.125c0-4.144531-3.355469-7.5-7.5-7.5h-49.734375c-4.144532 0-7.5 3.355469-7.5 7.5v79.128906c0 3.53125 2.445312 6.484375 5.730468 7.28125-1.8125 36.570313-7.867187 95.597656-27.707031 130.757813-2.75 4.882812-5.335937 10.320312-7.6875 16.15625l-.011719.023437c-.011718.03125-.027343.0625-.039062.097656-12.917969 32.023438-20.417969 79.109376-22.292969 139.945313-.4335935 14.140625-.558593 29.023437-.3710935 44.230469.0507815 4.113281 3.3984375 7.410156 7.4960935 7.410156zm59.882813-417.53125h34.734375v64.128906h-34.734375zm0 0"/><path d="m62.625 408.835938h44.414062c4.140626 0 7.5-3.355469 7.5-7.5 0-4.144532-3.359374-7.5-7.5-7.5h-44.414062c-4.144531 0-7.5 3.355468-7.5 7.5 0 4.144531 3.355469 7.5 7.5 7.5zm0 0"/><path d="m62.625 432.527344h44.414062c4.140626 0 7.5-3.355469 7.5-7.5 0-4.144532-3.359374-7.5-7.5-7.5h-44.414062c-4.144531 0-7.5 3.355468-7.5 7.5 0 4.144531 3.355469 7.5 7.5 7.5zm0 0"/><path d="m79.523438 37.105469c4.144531 0 7.5-3.359375 7.5-7.5 0-4.144531-3.355469-7.5-7.5-7.5h-1.679688c-4.140625 0-7.5 3.355469-7.5 7.5 0 4.140625 3.359375 7.5 7.5 7.5zm0 0"/><path d="m86.792969 39.5625h-1.679688c-4.144531 0-7.5 3.359375-7.5 7.5 0 4.144531 3.355469 7.5 7.5 7.5h1.679688c4.140625 0 7.5-3.355469 7.5-7.5 0-4.140625-3.359375-7.5-7.5-7.5zm0 0"/><path d="m295.039062 233.34375h-96.277343c-4.144531 0-7.5 3.355469-7.5 7.5v28.15625c0 4.144531 3.355469 7.5 7.5 7.5 4.140625 0 7.5-3.355469 7.5-7.5v-20.65625h81.277343v117.023438c0 22.410156-18.230468 40.640624-40.640624 40.640624-22.40625 0-40.636719-18.230468-40.636719-40.640624v-67.367188c0-4.144531-3.359375-7.5-7.5-7.5-4.144531 0-7.5 3.355469-7.5 7.5v67.367188c0 28.136718 20.996093 51.445312 48.136719 55.121093v76.511719h-18.621094c-4.140625 0-7.5 3.355469-7.5 7.5s3.359375 7.5 7.5 7.5h52.246094c4.140624 0 7.5-3.355469 7.5-7.5s-3.359376-7.5-7.5-7.5h-18.625v-76.511719c27.144531-3.675781 48.140624-26.984375 48.140624-55.121093v-124.523438c0-4.144531-3.355468-7.5-7.5-7.5zm0 0"/><path d="m237.359375 311.105469h1.683594c4.140625 0 7.5-3.359375 7.5-7.5 0-4.144531-3.359375-7.5-7.5-7.5h-1.683594c-4.140625 0-7.5 3.355469-7.5 7.5 0 4.140625 3.359375 7.5 7.5 7.5zm0 0"/><path d="m242.222656 321.382812c0 4.144532 3.355469 7.5 7.5 7.5h1.679688c4.140625 0 7.5-3.355468 7.5-7.5 0-4.140624-3.359375-7.5-7.5-7.5h-1.679688c-4.144531 0-7.5 3.359376-7.5 7.5zm0 0"/><path d="m247.742188 353.195312h-1.683594c-4.140625 0-7.5 3.359376-7.5 7.5 0 4.144532 3.359375 7.5 7.5 7.5h1.683594c4.140624 0 7.5-3.355468 7.5-7.5 0-4.140624-3.359376-7.5-7.5-7.5zm0 0"/><path d="m417.726562 233.34375h-96.28125c-4.140624 0-7.5 3.355469-7.5 7.5v124.523438c0 28.136718 20.996094 51.445312 48.140626 55.121093v76.511719h-18.621094c-4.144532 0-7.5 3.355469-7.5 7.5s3.355468 7.5 7.5 7.5h52.242187c4.144531 0 7.5-3.355469 7.5-7.5s-3.355469-7.5-7.5-7.5h-18.621093v-76.511719c27.144531-3.675781 48.140624-26.984375 48.140624-55.121093v-124.523438c0-4.144531-3.359374-7.5-7.5-7.5zm-7.5 132.023438c0 22.410156-18.230468 40.640624-40.640624 40.640624-22.410157 0-40.640626-18.230468-40.640626-40.640624v-117.023438h81.28125zm0 0"/><path d="m360.046875 311.105469h1.683594c4.140625 0 7.5-3.359375 7.5-7.5 0-4.144531-3.359375-7.5-7.5-7.5h-1.683594c-4.140625 0-7.5 3.355469-7.5 7.5 0 4.140625 3.355469 7.5 7.5 7.5zm0 0"/><path d="m364.90625 321.382812c0 4.144532 3.359375 7.5 7.5 7.5h1.683594c4.140625 0 7.5-3.355468 7.5-7.5 0-4.140624-3.359375-7.5-7.5-7.5h-1.683594c-4.140625 0-7.5 3.359376-7.5 7.5zm0 0"/><path d="m370.425781 353.195312h-1.679687c-4.140625 0-7.5 3.359376-7.5 7.5 0 4.144532 3.359375 7.5 7.5 7.5h1.679687c4.144531 0 7.5-3.355468 7.5-7.5 0-4.140624-3.355469-7.5-7.5-7.5zm0 0"/></g></svg>